<svg width="47" height="48" viewBox="0 0 47 48" fill="none" xmlns="http://www.w3.org/2000/svg">
<g clip-path="url(#clip0_229_1163)">
<path d="M18.6044 22C20.2268 22 21.5419 20.6569 21.5419 19C21.5419 17.3431 20.2268 16 18.6044 16C16.9821 16 15.6669 17.3431 15.6669 19C15.6669 20.6569 16.9821 22 18.6044 22Z" fill="#374957"/>
<path d="M36.2294 6C37.8518 6 39.1669 4.65685 39.1669 3C39.1669 1.34315 37.8518 0 36.2294 0C34.6071 0 33.2919 1.34315 33.2919 3C33.2919 4.65685 34.6071 6 36.2294 6Z" fill="#374957"/>
<path d="M42.1045 16C43.7268 16 45.042 14.6569 45.042 13C45.042 11.3431 43.7268 10 42.1045 10C40.4822 10 39.167 11.3431 39.167 13C39.167 14.6569 40.4822 16 42.1045 16Z" fill="#374957"/>
<path d="M18.6044 32C20.2268 32 21.5419 30.6569 21.5419 29C21.5419 27.3431 20.2268 26 18.6044 26C16.9821 26 15.6669 27.3431 15.6669 29C15.6669 30.6569 16.9821 32 18.6044 32Z" fill="#374957"/>
<path d="M28.3956 32C30.0179 32 31.3331 30.6569 31.3331 29C31.3331 27.3431 30.0179 26 28.3956 26C26.7732 26 25.4581 27.3431 25.4581 29C25.4581 30.6569 26.7732 32 28.3956 32Z" fill="#374957"/>
<path d="M46.8884 21.708C46.845 21.2456 46.6453 20.8131 46.3237 20.4847C46.0021 20.1562 45.5786 19.9523 45.1259 19.908C40.6015 19.4628 36.3696 17.4242 33.1557 14.1415C29.9418 10.8589 27.9461 6.53674 27.5107 1.916C27.4673 1.45363 27.2676 1.0211 26.946 0.692658C26.6244 0.364212 26.2009 0.160329 25.7482 0.116C25.006 0.042 24.2579 0 23.5 0C18.8521 0 14.3087 1.40758 10.4441 4.04473C6.57955 6.68188 3.5675 10.4302 1.78884 14.8156C0.0101822 19.201 -0.455196 24.0266 0.451556 28.6822C1.35831 33.3377 3.59647 37.6141 6.883 40.9706C10.1695 44.327 14.3568 46.6128 18.9154 47.5388C23.4739 48.4649 28.199 47.9896 32.4931 46.1731C36.7871 44.3566 40.4573 41.2805 43.0395 37.3337C45.6218 33.3869 47 28.7468 47 24C47 23.226 46.9589 22.462 46.8884 21.708ZM23.5 44C18.3062 44 13.3251 41.8929 9.6525 38.1421C5.97992 34.3914 3.91668 29.3043 3.91668 24C3.91668 18.6957 5.97992 13.6086 9.6525 9.85787C13.3251 6.10714 18.3062 4 23.5 4H23.8329C24.6484 8.91151 26.9394 13.4424 30.3885 16.9649C33.8376 20.4875 38.2742 22.8272 43.0833 23.66C43.0833 23.774 43.0833 23.886 43.0833 24C43.0776 29.3025 41.0126 34.3862 37.3412 38.1357C33.6699 41.8852 28.6921 43.9942 23.5 44Z" fill="#374957"/>
</g>
<defs>
<clipPath id="clip0_229_1163">
<rect width="47" height="48" fill="white"/>
</clipPath>
</defs>
</svg>
