<svg width="54" height="49" viewBox="0 0 54 49" fill="none" xmlns="http://www.w3.org/2000/svg">
<g clip-path="url(#clip0_229_1152)">
<path d="M20.25 24.5C22.92 24.5 25.5301 23.7816 27.7502 22.4355C29.9703 21.0895 31.7006 19.1763 32.7224 16.9379C33.7442 14.6995 34.0115 12.2364 33.4906 9.86015C32.9697 7.48388 31.684 5.30114 29.7959 3.58795C27.9079 1.87475 25.5025 0.708055 22.8837 0.235386C20.265 -0.237283 17.5506 0.00530775 15.0838 0.932481C12.617 1.85965 10.5086 3.42977 9.02516 5.44427C7.54176 7.45877 6.75 9.82718 6.75 12.25C6.75357 15.4979 8.17704 18.6119 10.708 20.9085C13.239 23.2051 16.6707 24.4968 20.25 24.5ZM20.25 4.08334C22.03 4.08334 23.7701 4.56231 25.2501 5.45967C26.7302 6.35704 27.8837 7.63249 28.5649 9.12476C29.2461 10.617 29.4243 12.2591 29.0771 13.8432C28.7298 15.4274 27.8726 16.8826 26.614 18.0247C25.3553 19.1668 23.7516 19.9446 22.0058 20.2598C20.26 20.5749 18.4504 20.4131 16.8058 19.795C15.1613 19.1769 13.7557 18.1302 12.7668 16.7872C11.7778 15.4442 11.25 13.8652 11.25 12.25C11.25 10.0841 12.1982 8.00685 13.886 6.4753C15.5739 4.94375 17.8631 4.08334 20.25 4.08334Z" fill="#374957"/>
<path d="M20.25 28.583C14.8814 28.589 9.73451 30.5268 5.93832 33.9715C2.14213 37.4162 0.00654965 42.0864 0 46.958C0 47.4994 0.237053 48.0187 0.65901 48.4016C1.08097 48.7845 1.65326 48.9996 2.25 48.9996C2.84674 48.9996 3.41903 48.7845 3.84099 48.4016C4.26295 48.0187 4.5 47.4994 4.5 46.958C4.5 43.1676 6.15937 39.5324 9.11307 36.8523C12.0668 34.1721 16.0728 32.6663 20.25 32.6663C24.4272 32.6663 28.4332 34.1721 31.3869 36.8523C34.3406 39.5324 36 43.1676 36 46.958C36 47.4994 36.2371 48.0187 36.659 48.4016C37.081 48.7845 37.6533 48.9996 38.25 48.9996C38.8467 48.9996 39.419 48.7845 39.841 48.4016C40.2629 48.0187 40.5 47.4994 40.5 46.958C40.4935 42.0864 38.3579 37.4162 34.5617 33.9715C30.7655 30.5268 25.6186 28.589 20.25 28.583Z" fill="#374957"/>
<path d="M49.4997 16.0781C48.2475 16.1347 47.0711 16.6391 46.2277 17.4809C45.3844 18.3227 44.9428 19.4333 44.9997 20.5698C45.0566 19.4333 44.6151 18.3227 43.7717 17.4809C42.9284 16.6391 41.7519 16.1347 40.4997 16.0781C39.2476 16.1347 38.0711 16.6391 37.2278 17.4809C36.3844 18.3227 35.9429 19.4333 35.9998 20.5698C35.9998 24.1019 41.0757 28.2403 43.6047 30.0819C44.0006 30.3695 44.4926 30.5262 44.9997 30.5262C45.5069 30.5262 45.9989 30.3695 46.3947 30.0819C48.9237 28.2444 53.9997 24.1019 53.9997 20.5698C54.0566 19.4333 53.6151 18.3227 52.7717 17.4809C51.9284 16.6391 50.7519 16.1347 49.4997 16.0781Z" fill="#374957"/>
</g>
<defs>
<clipPath id="clip0_229_1152">
<rect width="54" height="49" fill="white"/>
</clipPath>
</defs>
</svg>
