<svg width="50" height="52" viewBox="0 0 50 52" fill="none" xmlns="http://www.w3.org/2000/svg">
<path d="M47.9164 10.8333H42.5289L47.306 5.86517C47.6855 5.45653 47.8955 4.90922 47.8907 4.34113C47.886 3.77304 47.6669 3.22961 47.2806 2.82789C46.8943 2.42618 46.3718 2.19831 45.8256 2.19337C45.2793 2.18844 44.7531 2.40682 44.3601 2.8015L39.5831 7.76967V2.16667C39.5831 1.59203 39.3636 1.04093 38.9729 0.634602C38.5822 0.228273 38.0523 0 37.4997 0C36.9472 0 36.4173 0.228273 36.0266 0.634602C35.6359 1.04093 35.4164 1.59203 35.4164 2.16667V11.8213C33.7111 9.93332 31.6981 8.37386 29.4706 7.215C27.9065 6.49754 26.16 6.33109 24.4966 6.74097C22.8333 7.15086 21.3442 8.11464 20.256 9.48567C16.5935 13.2947 6.38515 32.7622 0.62473 44.0245C0.118458 45.0492 -0.0619581 46.2146 0.109475 47.3528C0.280907 48.4911 0.795339 49.5433 1.57865 50.3579C2.36196 51.1726 3.37372 51.7076 4.46814 51.8859C5.56257 52.0642 6.68316 51.8765 7.66848 51.35C18.5018 45.3613 37.2164 34.7425 40.8789 30.9335C42.1968 29.802 43.1234 28.2538 43.5179 26.5245C43.9123 24.7951 43.7531 22.9791 43.0643 21.3525C41.9486 19.0355 40.4485 16.9415 38.6331 15.1667H47.9164C48.4689 15.1667 48.9988 14.9384 49.3895 14.5321C49.7802 14.1257 49.9997 13.5746 49.9997 13C49.9997 12.4254 49.7802 11.8743 49.3895 11.4679C48.9988 11.0616 48.4689 10.8333 47.9164 10.8333ZM37.9331 27.8698C36.4436 29.1953 34.8451 30.3821 33.156 31.4167L28.556 26.6348C28.1631 26.2402 27.6368 26.0218 27.0906 26.0267C26.5443 26.0316 26.0218 26.2595 25.6355 26.6612C25.2493 27.0629 25.0302 27.6064 25.0254 28.1745C25.0207 28.7426 25.2306 29.2899 25.6101 29.6985L29.506 33.748C23.7851 37.3078 15.5706 42.0723 5.71223 47.5237C5.51531 47.6323 5.29008 47.6724 5.06964 47.638C4.8492 47.6036 4.64518 47.4966 4.48756 47.3327C4.32994 47.1687 4.22704 46.9566 4.19398 46.7273C4.16092 46.498 4.19945 46.2638 4.3039 46.059C7.47473 39.8602 10.3935 34.307 12.9706 29.5533L17.2768 34.0318C17.6697 34.4265 18.196 34.6449 18.7422 34.64C19.2885 34.635 19.811 34.4072 20.1973 34.0054C20.5835 33.6037 20.8026 33.0603 20.8074 32.4922C20.8121 31.9241 20.6021 31.3768 20.2226 30.9682L15.106 25.6468C17.3768 21.554 19.2851 18.2802 20.7497 15.977L25.6101 21.0318C26.0031 21.4265 26.5293 21.6449 27.0756 21.64C27.6218 21.635 28.1443 21.4072 28.5306 21.0054C28.9169 20.6037 29.136 20.0603 29.1407 19.4922C29.1455 18.9241 28.9355 18.3768 28.556 17.9682L23.2789 12.48C25.0435 10.7705 26.1247 10.4823 27.8268 11.1973C30.1894 12.5996 32.308 14.4059 34.0935 16.5403C36.1466 18.3979 37.8841 20.6019 39.2331 23.0598C39.7518 24.3165 39.9539 25.7703 37.9331 27.8698Z" fill="#374957"/>
</svg>
