<svg width="60" height="60" viewBox="0 0 60 60" fill="none" xmlns="http://www.w3.org/2000/svg">
<g clip-path="url(#clip0_322_1403)">
<path d="M58.2626 40.6249C57.9814 41.3647 57.5188 42.0218 56.9173 42.536C56.3157 43.0502 55.5945 43.4049 54.8201 43.5674C54.0329 43.7408 53.2146 43.7123 52.4414 43.4846C51.6682 43.2569 50.9651 42.8373 50.3976 42.2649L50.1476 42.0149C48.8958 40.7633 47.2998 39.9125 45.5629 39.5709C43.8259 39.2294 42.0266 39.4125 40.3941 40.097C38.7616 40.7815 37.3697 41.9363 36.3958 43.4145C35.4218 44.8927 34.9098 46.6273 34.925 48.3974L35.0251 59.6874L32.715 59.8799C31.8876 59.9499 31.0576 60.0049 30.2151 60.0049C24.2365 60.0069 18.3937 58.2226 13.4363 54.8808C8.47891 51.539 4.63305 46.7923 2.39217 41.2495C0.151281 35.7068 -0.38242 29.621 0.85954 23.7729C2.1015 17.9247 5.06247 12.581 9.36255 8.42744C12.2496 5.61423 15.6788 3.41789 19.4416 1.97208C23.2044 0.526269 27.2221 -0.13877 31.25 0.0174354C38.8619 0.372717 46.0625 3.57489 51.4246 8.98926C56.7866 14.4036 59.9187 21.635 60.2001 29.2499C60.3012 33.1316 59.6431 36.9956 58.2626 40.6249ZM42.7876 20.1249C42.0708 20.3154 41.4266 20.7141 40.9364 21.2706C40.4462 21.8271 40.1321 22.5165 40.0336 23.2516C39.9352 23.9867 40.057 24.7344 40.3835 25.4003C40.71 26.0662 41.2267 26.6203 41.8681 26.9925C42.5095 27.3648 43.2469 27.5385 43.9871 27.4917C44.7272 27.4449 45.4369 27.1797 46.0263 26.7296C46.6158 26.2795 47.0585 25.6648 47.2986 24.9631C47.5386 24.2614 47.5653 23.5043 47.3751 22.7874C47.2487 22.3114 47.0298 21.8648 46.7309 21.4733C46.432 21.0819 46.0589 20.7531 45.6329 20.5059C45.2068 20.2586 44.7363 20.0977 44.2481 20.0324C43.7599 19.967 43.2636 19.9985 42.7876 20.1249ZM30.2875 12.6249C29.5708 12.8154 28.9266 13.2141 28.4364 13.7706C27.9462 14.3271 27.6321 15.0165 27.5336 15.7516C27.4352 16.4867 27.557 17.2344 27.8835 17.9003C28.21 18.5662 28.7267 19.1203 29.3681 19.4925C30.0095 19.8648 30.7469 20.0385 31.4871 19.9917C32.2272 19.9449 32.9369 19.6797 33.5263 19.2296C34.1158 18.7795 34.5585 18.1648 34.7986 17.4631C35.0386 16.7614 35.0653 16.0043 34.875 15.2874C34.7487 14.8114 34.5298 14.3648 34.2309 13.9733C33.932 13.5819 33.5589 13.2531 33.1328 13.0059C32.7068 12.7586 32.2363 12.5977 31.7481 12.5324C31.2599 12.467 30.7636 12.4985 30.2875 12.6249ZM17.7875 20.1249C17.0708 20.3154 16.4266 20.7141 15.9364 21.2706C15.4462 21.8271 15.1321 22.5165 15.0336 23.2516C14.9352 23.9867 15.057 24.7344 15.3835 25.4003C15.71 26.0662 16.2267 26.6203 16.8681 26.9925C17.5095 27.3648 18.2469 27.5385 18.9871 27.4917C19.7272 27.4449 20.4369 27.1797 21.0263 26.7296C21.6158 26.2795 22.0585 25.6648 22.2986 24.9631C22.5386 24.2614 22.5653 23.5043 22.375 22.7874C22.2487 22.3114 22.0298 21.8648 21.7309 21.4733C21.432 21.0819 21.0589 20.7531 20.6328 20.5059C20.2068 20.2586 19.7363 20.0977 19.2481 20.0324C18.7599 19.967 18.2636 19.9985 17.7875 20.1249ZM17.7875 35.1249C17.0708 35.3154 16.4266 35.7141 15.9364 36.2706C15.4462 36.8271 15.1321 37.5165 15.0336 38.2516C14.9352 38.9867 15.057 39.7344 15.3835 40.4003C15.71 41.0662 16.2267 41.6203 16.8681 41.9925C17.5095 42.3648 18.2469 42.5385 18.9871 42.4917C19.7272 42.4449 20.4369 42.1797 21.0263 41.7296C21.6158 41.2795 22.0585 40.6648 22.2986 39.9631C22.5386 39.2614 22.5653 38.5043 22.375 37.7874C22.2487 37.3114 22.0298 36.8648 21.7309 36.4733C21.432 36.0819 21.0589 35.7531 20.6328 35.5059C20.2068 35.2586 19.7363 35.0977 19.2481 35.0324C18.7599 34.967 18.2636 34.9985 17.7875 35.1249Z" fill="#FFE4CF"/>
</g>
<defs>
<clipPath id="clip0_322_1403">
<rect width="60" height="60" fill="white"/>
</clipPath>
</defs>
</svg>
