<svg width="85" height="85" viewBox="0 0 85 85" fill="none" xmlns="http://www.w3.org/2000/svg">
<g clip-path="url(#clip0_374_1439)">
<path d="M28.7528 74.1283C30.7619 76.7638 33.7344 78.4948 37.0182 78.9416C40.3019 79.3884 43.6288 78.5145 46.269 76.5116L74.1284 55.3254C76.7639 53.3162 78.4949 50.3438 78.9416 47.06C79.3884 43.7763 78.5145 40.4494 76.5117 37.8091L62.892 19.8995L15.1331 56.2188L28.7528 74.1283ZM55.7721 39.4474C56.3625 38.9985 57.0727 38.7347 57.813 38.6894C58.5533 38.6441 59.2904 38.8193 59.9311 39.1929C60.5718 39.5665 61.0874 40.1218 61.4125 40.7884C61.7377 41.455 61.8578 42.203 61.7579 42.9379C61.6579 43.6728 61.3422 44.3616 60.8508 44.9171C60.3593 45.4726 59.7142 45.8699 58.997 46.0588C58.2797 46.2476 57.5226 46.2195 56.8213 45.9781C56.1201 45.7367 55.5061 45.2927 55.0572 44.7023C54.4551 43.9107 54.1922 42.9123 54.3263 41.9268C54.4604 40.9413 54.9805 40.0495 55.7721 39.4474ZM45.8224 47.0139C46.4127 46.565 47.123 46.3012 47.8633 46.2559C48.6036 46.2106 49.3407 46.3858 49.9814 46.7594C50.6221 47.133 51.1376 47.6883 51.4627 48.3549C51.7879 49.0215 51.9081 49.7695 51.8081 50.5044C51.7081 51.2393 51.3924 51.9281 50.901 52.4836C50.4096 53.0391 49.7644 53.4364 49.0472 53.6253C48.33 53.8141 47.5728 53.786 46.8716 53.5446C46.1703 53.3032 45.5563 52.8592 45.1074 52.2688C44.5054 51.4772 44.2425 50.4788 44.3766 49.4933C44.5106 48.5078 45.0307 47.616 45.8224 47.0139ZM35.8726 54.5804C36.463 54.1315 37.1732 53.8677 37.9135 53.8224C38.6538 53.7771 39.3909 53.9523 40.0316 54.3259C40.6723 54.6995 41.1878 55.2548 41.513 55.9214C41.8381 56.588 41.9583 57.336 41.8583 58.0709C41.7583 58.8058 41.4426 59.4946 40.9512 60.0501C40.4598 60.6056 39.8147 61.0029 39.0974 61.1918C38.3802 61.3806 37.6231 61.3526 36.9218 61.1111C36.2205 60.8697 35.6066 60.4257 35.1576 59.8353C34.5556 59.0437 34.2927 58.0453 34.4268 57.0598C34.5609 56.0743 35.0809 55.1825 35.8726 54.5804Z" fill="#FFD6D3"/>
<path d="M40.8357 11.5465L38.8458 13.0598L37.3325 11.0699C36.9311 10.5421 36.3366 10.1954 35.6796 10.106C35.0226 10.0166 34.357 10.1919 33.8292 10.5932C33.3015 10.9946 32.9547 11.5891 32.8654 12.2461C32.776 12.9031 32.9512 13.5687 33.3526 14.0965L34.8659 16.0864L18.9462 28.1928L17.4329 26.2029C17.0316 25.6751 16.437 25.3284 15.78 25.239C15.123 25.1496 14.4575 25.3249 13.9297 25.7262C13.4019 26.1276 13.0552 26.7222 12.9658 27.3791C12.8764 28.0361 13.0517 28.7017 13.453 29.2295L14.9663 31.2194L12.9764 32.7327C10.3409 34.7419 8.60993 37.7144 8.16315 40.9981C7.71636 44.2819 8.59024 47.6087 10.5931 50.249L12.1064 52.239L59.8653 15.9198L58.352 13.9298C56.3428 11.2943 53.3704 9.56335 50.0866 9.11657C46.8029 8.66978 43.476 9.54367 40.8357 11.5465Z" fill="#FFD6D3"/>
</g>
<defs>
<clipPath id="clip0_374_1439">
<rect width="60" height="60" fill="white" transform="translate(0 36.3193) rotate(-37.2519)"/>
</clipPath>
</defs>
</svg>
