<svg width="110" height="110" viewBox="0 0 110 110" fill="none" xmlns="http://www.w3.org/2000/svg">
<g clip-path="url(#clip0_253_3470)">
<path d="M58.7435 92.5462L54.9992 89.557L51.2556 92.5469L38.1714 102.997L34.8621 86.5803L33.9157 81.8853L29.1277 81.7678L12.3864 81.3568L20.4022 66.6533L22.6948 62.4479L19.1019 59.2806L6.54254 48.209L22.1308 42.1017L26.5912 40.3542L25.8746 35.6176L23.3699 19.0627L39.2397 24.4046L43.7792 25.9326L46.2749 21.8444L55.0001 7.55186L63.7255 21.8405L66.2215 25.9278L70.7604 24.4L86.6301 19.0582L84.1254 35.613L83.4088 40.3496L87.8692 42.0971L103.457 48.2044L90.8982 59.276L87.3052 62.4433L89.5978 66.6487L97.6136 81.3522L80.8724 81.7632L76.0843 81.8807L75.1379 86.5758L71.8286 102.993L58.7435 92.5462Z" fill="#B4EAED" stroke="white" stroke-width="12"/>
</g>
<g clip-path="url(#clip1_253_3470)">
<path d="M61.8912 44.8271C60.4011 44.8502 58.9434 45.2632 57.6654 46.0247C56.3875 46.7861 55.3345 47.8689 54.6128 49.1637C53.8911 47.8689 52.8381 46.7861 51.5601 46.0247C50.2821 45.2632 48.8245 44.8502 47.3343 44.8271C44.9588 44.9296 42.7207 45.9616 41.1089 47.6975C39.4972 49.4334 38.6428 51.7321 38.7325 54.0916C38.7325 60.0668 45.0661 66.5926 50.378 71.0172C51.564 72.0069 53.0636 72.5495 54.6128 72.5495C56.1619 72.5495 57.6615 72.0069 58.8475 71.0172C64.1595 66.5926 70.493 60.0668 70.493 54.0916C70.5827 51.7321 69.7283 49.4334 68.1166 47.6975C66.5048 45.9616 64.2667 44.9296 61.8912 44.8271Z" fill="#374957"/>
</g>
<defs>
<clipPath id="clip0_253_3470">
<rect width="110" height="110" fill="white"/>
</clipPath>
<clipPath id="clip1_253_3470">
<rect width="31.7606" height="31.5385" fill="white" transform="translate(38.7324 42.3076)"/>
</clipPath>
</defs>
</svg>
