<svg width="139" height="19" viewBox="0 0 139 19" fill="none" xmlns="http://www.w3.org/2000/svg">
<path d="M7.46484 18.0938C3.87891 18.0938 1.65234 18.0625 0.785156 18C0.589844 17.9844 0.425781 17.9141 0.292969 17.7891C0.160156 17.6562 0.09375 17.4961 0.09375 17.3086C0.148438 10.8945 0.355469 5.72656 0.714844 1.80469C0.761719 1.45312 0.996094 1.25 1.41797 1.19531C2.07422 1.13281 3.13672 1.10156 4.60547 1.10156C5.45703 1.10156 6.22656 1.13281 6.91406 1.19531C7.13281 1.21875 7.30859 1.3125 7.44141 1.47656C7.58203 1.63281 7.62891 1.80469 7.58203 1.99219C7.54297 2.17188 7.45703 2.56641 7.32422 3.17578C7.19141 3.78516 7.10547 4.18359 7.06641 4.37109C7.03516 4.55078 6.96875 4.89453 6.86719 5.40234C6.76562 5.91016 6.69531 6.27734 6.65625 6.50391C6.625 6.73047 6.57812 7.0625 6.51562 7.5C6.45312 7.92969 6.41016 8.29297 6.38672 8.58984C6.37109 8.88672 6.35156 9.23047 6.32812 9.62109C6.3125 10.0039 6.30469 10.3828 6.30469 10.7578C6.30469 12.3672 7.35547 13.1719 9.45703 13.1719C10.6992 13.1719 11.6875 12.9883 12.4219 12.6211C13.1562 12.2461 13.8242 11.582 14.4258 10.6289C14.5352 10.4492 14.6758 10.3398 14.8477 10.3008C15.0273 10.2539 15.1836 10.2891 15.3164 10.4062C15.457 10.5156 15.5352 10.6797 15.5508 10.8984C15.7305 12.5938 15.8594 14.7383 15.9375 17.332C15.9453 17.5117 15.8906 17.6641 15.7734 17.7891C15.6562 17.9141 15.5 17.9844 15.3047 18C14.2344 18.0625 11.6211 18.0938 7.46484 18.0938ZM24.1758 18.1875C21.7695 18.1875 19.8789 17.5898 18.5039 16.3945C17.1367 15.1992 16.4531 13.5039 16.4531 11.3086C16.4531 9.26172 17.1016 7.66016 18.3984 6.50391C19.6953 5.33984 21.4141 4.75781 23.5547 4.75781C25.4922 4.75781 27 5.14453 28.0781 5.91797C29.1562 6.69141 29.6953 7.82422 29.6953 9.31641C29.6953 10.3633 29.207 11.2383 28.2305 11.9414C27.2539 12.6367 26.1172 12.9844 24.8203 12.9844C23.625 12.9844 22.5547 12.6797 21.6094 12.0703C21.4141 11.9219 21.2617 11.8984 21.1523 12C21.0508 12.1016 21.0664 12.2617 21.1992 12.4805C21.457 13.0352 21.9336 13.4883 22.6289 13.8398C23.332 14.1836 24.0703 14.3555 24.8438 14.3555C25.6875 14.3555 26.4375 14.2383 27.0938 14.0039C27.7578 13.7695 28.3867 13.3906 28.9805 12.8672C29.1602 12.6406 29.3555 12.5742 29.5664 12.668C29.7852 12.7539 29.9102 12.9648 29.9414 13.3008C30.0586 14.3789 30.1445 15.3867 30.1992 16.3242C30.2227 16.668 30.0938 16.9375 29.8125 17.1328C29.1875 17.5 28.3633 17.7695 27.3398 17.9414C26.3242 18.1055 25.2695 18.1875 24.1758 18.1875ZM23.4375 11.0859C23.8516 11.0859 24.1797 10.9766 24.4219 10.7578C24.6719 10.5391 24.7969 10.2266 24.7969 9.82031C24.7969 8.89062 24.293 8.42578 23.2852 8.42578C22.8008 8.42578 22.375 8.57422 22.0078 8.87109C21.6484 9.16797 21.4688 9.53906 21.4688 9.98438C21.4688 10.3203 21.6797 10.5898 22.1016 10.793C22.5312 10.9883 22.9766 11.0859 23.4375 11.0859ZM33.9141 18.0938C32.9297 18.0938 32.1523 18.0625 31.582 18C31.4023 17.9766 31.2539 17.9023 31.1367 17.7773C31.0195 17.6445 30.9609 17.4805 30.9609 17.2852C30.9609 12.793 31.1211 8.89453 31.4414 5.58984C31.4883 5.23828 31.7031 5.02344 32.0859 4.94531C32.4844 4.88281 33.1641 4.85156 34.125 4.85156C35.2656 4.85156 36.1211 4.88281 36.6914 4.94531C36.9102 4.98438 37.082 5.07422 37.207 5.21484C37.332 5.34766 37.3711 5.51172 37.3242 5.70703C37.0742 7.04297 36.9375 7.98047 36.9141 8.51953C36.9141 8.69922 36.9414 8.83203 36.9961 8.91797C37.0586 9.00391 37.1289 9.01953 37.207 8.96484C37.293 8.90234 37.3633 8.77734 37.418 8.58984C37.7383 7.46484 38.2188 6.5625 38.8594 5.88281C39.5 5.19531 40.2344 4.85156 41.0625 4.85156C41.9766 4.85156 42.7305 5.12891 43.3242 5.68359C43.9258 6.23828 44.3867 7.18359 44.707 8.51953C44.7773 8.83984 44.8867 9 45.0352 9C45.1836 8.99219 45.3008 8.83203 45.3867 8.51953C45.6445 7.43359 46.1094 6.55078 46.7812 5.87109C47.4531 5.19141 48.2422 4.85156 49.1484 4.85156C50.25 4.85156 51.1797 5.25781 51.9375 6.07031C52.6953 6.875 53.1992 8.17969 53.4492 9.98438C53.4883 10.2656 53.5273 10.5586 53.5664 10.8633C53.6055 11.168 53.6367 11.4336 53.6602 11.6602C53.6836 11.8789 53.707 12.1758 53.7305 12.5508C53.7617 12.918 53.7812 13.1836 53.7891 13.3477C53.8047 13.5117 53.8242 13.8242 53.8477 14.2852C53.8789 14.7383 53.8945 15.0312 53.8945 15.1641C53.9023 15.2891 53.918 15.6328 53.9414 16.1953C53.9727 16.7578 53.9922 17.1016 54 17.2266C54.0078 17.4375 53.9492 17.6094 53.8242 17.7422C53.6992 17.875 53.5352 17.9609 53.332 18C52.8867 18.0625 52.1016 18.0938 50.9766 18.0938C49.7109 18.0938 48.8477 18.0625 48.3867 18C48.1758 17.9609 48.0078 17.875 47.8828 17.7422C47.7578 17.6094 47.707 17.4375 47.7305 17.2266C47.8398 15.3906 47.8828 14.0469 47.8594 13.1953C47.8359 12.3516 47.707 11.6992 47.4727 11.2383C47.2461 10.7695 46.9336 10.5352 46.5352 10.5352C46.1992 10.5352 45.918 10.7734 45.6914 11.25C45.4727 11.7188 45.3633 12.3281 45.3633 13.0781C45.3633 13.6953 45.4492 15.0781 45.6211 17.2266C45.6445 17.4297 45.5898 17.6016 45.457 17.7422C45.332 17.875 45.1641 17.9609 44.9531 18C44.5078 18.0625 43.7227 18.0938 42.5977 18.0938C41.4883 18.0938 40.6172 18.0625 39.9844 18C39.7812 17.9766 39.6172 17.8945 39.4922 17.7539C39.3672 17.6133 39.3086 17.4375 39.3164 17.2266C39.4258 15.2734 39.4727 13.9141 39.457 13.1484C39.4336 12.3516 39.3047 11.7188 39.0703 11.25C38.8359 10.7734 38.5156 10.5352 38.1094 10.5352C37.7734 10.5352 37.5 10.7812 37.2891 11.2734C37.0859 11.7656 36.9766 12.3906 36.9609 13.1484C36.9453 13.8516 37.0156 15.2227 37.1719 17.2617C37.1953 17.457 37.1406 17.625 37.0078 17.7656C36.8828 17.8984 36.7227 17.9766 36.5273 18C35.9102 18.0625 35.0391 18.0938 33.9141 18.0938ZM61.9688 18.1875C61.0859 18.1875 60.2734 18.1172 59.5312 17.9766C58.7969 17.8281 58.1172 17.5938 57.4922 17.2734C56.875 16.9531 56.3516 16.5508 55.9219 16.0664C55.4922 15.5742 55.1562 14.9727 54.9141 14.2617C54.6797 13.5508 54.5625 12.7422 54.5625 11.8359C54.5625 9.6875 55.2461 7.97266 56.6133 6.69141C57.9883 5.40234 59.7734 4.75781 61.9688 4.75781C64.1641 4.75781 65.9453 5.40234 67.3125 6.69141C68.6797 7.97266 69.3633 9.6875 69.3633 11.8359C69.3633 12.9609 69.1836 13.9375 68.8242 14.7656C68.4648 15.5938 67.9492 16.2539 67.2773 16.7461C66.6055 17.2383 65.8281 17.6016 64.9453 17.8359C64.0703 18.0703 63.0781 18.1875 61.9688 18.1875ZM60.5156 13.3125C60.8906 13.7656 61.375 13.9922 61.9688 13.9922C62.5625 13.9922 63.0469 13.7656 63.4219 13.3125C63.7969 12.8594 63.9844 12.2539 63.9844 11.4961C63.9844 10.7461 63.7969 10.1328 63.4219 9.65625C63.0469 9.17188 62.5625 8.92969 61.9688 8.92969C61.375 8.92969 60.8906 9.17188 60.5156 9.65625C60.1406 10.1328 59.9531 10.7461 59.9531 11.4961C59.9531 12.2539 60.1406 12.8594 60.5156 13.3125ZM73.125 18.0938C72.0234 18.0938 71.1445 18.0625 70.4883 18C70.3008 17.9766 70.1484 17.8984 70.0312 17.7656C69.9141 17.6328 69.8594 17.4727 69.8672 17.2852C69.8672 12.3789 70.0508 8.50391 70.418 5.66016C70.5039 5.23047 70.7188 4.99219 71.0625 4.94531C71.5938 4.88281 72.3867 4.85156 73.4414 4.85156C74.3867 4.85156 75.1875 4.88281 75.8438 4.94531C76.0391 4.96094 76.1992 5.05469 76.3242 5.22656C76.457 5.39844 76.4961 5.57812 76.4414 5.76562C76.1367 6.8125 75.9766 7.625 75.9609 8.20312C75.9609 8.45312 76.0273 8.58984 76.1602 8.61328C76.3008 8.62891 76.4102 8.52734 76.4883 8.30859C76.8945 7.14453 77.4648 6.26562 78.1992 5.67188C78.9336 5.07812 79.7891 4.78125 80.7656 4.78125C82.25 4.78125 83.4102 5.36328 84.2461 6.52734C85.0898 7.68359 85.5938 9.27734 85.7578 11.3086C85.8984 12.9336 85.9531 14.9492 85.9219 17.3555C85.8984 17.7383 85.6914 17.9531 85.3008 18C84.5898 18.0625 83.7812 18.0938 82.875 18.0938C81.9297 18.0938 81.082 18.0625 80.332 18C80.1445 17.9766 79.9883 17.8984 79.8633 17.7656C79.7383 17.625 79.6797 17.457 79.6875 17.2617C79.875 15.1523 79.9688 13.6797 79.9688 12.8438C79.9531 12.0156 79.7656 11.3164 79.4062 10.7461C79.0469 10.1758 78.5703 9.89062 77.9766 9.89062C77.375 9.89062 76.8867 10.1797 76.5117 10.7578C76.1445 11.3359 75.9609 12.0391 75.9609 12.8672C75.9844 14.1797 76.0586 15.6523 76.1836 17.2852C76.207 17.4805 76.1562 17.6445 76.0312 17.7773C75.9062 17.9023 75.7461 17.9766 75.5508 18C74.9805 18.0625 74.1719 18.0938 73.125 18.0938ZM90.4102 18.1875C87.8867 18.1875 86.625 16.9805 86.625 14.5664C86.625 13.9648 86.7773 13.418 87.082 12.9258C87.3945 12.4336 87.8242 12.0234 88.3711 11.6953C88.9258 11.3672 89.5508 11.0977 90.2461 10.8867C90.9414 10.6758 91.707 10.5195 92.543 10.418C93.3789 10.3164 93.9727 10.1992 94.3242 10.0664C94.6758 9.93359 94.8516 9.71484 94.8516 9.41016C94.8516 9.15234 94.7031 8.94141 94.4062 8.77734C94.1094 8.60547 93.6406 8.51953 93 8.51953C92.3438 8.51953 91.5781 8.65625 90.7031 8.92969C89.8359 9.19531 89.0742 9.55469 88.418 10.0078C88.2148 10.2266 88.0117 10.2812 87.8086 10.1719C87.6055 10.0625 87.5039 9.84766 87.5039 9.52734C87.4883 8.79297 87.5312 7.6875 87.6328 6.21094C87.6562 5.8125 87.8086 5.55859 88.0898 5.44922C89.418 4.98828 91.2383 4.75781 93.5508 4.75781C94.7383 4.75781 95.7656 4.875 96.6328 5.10938C97.5 5.33594 98.1875 5.66797 98.6953 6.10547C99.2109 6.54297 99.5977 7.03516 99.8555 7.58203C100.121 8.12891 100.293 8.76172 100.371 9.48047C100.652 12.1367 100.828 14.7305 100.898 17.2617C100.898 17.6758 100.691 17.9219 100.277 18C99.7461 18.0625 98.9766 18.0938 97.9688 18.0938C97.0312 18.0938 96.2656 18.0625 95.6719 18C95.3672 17.9609 95.1289 17.8555 94.957 17.6836C94.793 17.5117 94.7344 17.2969 94.7812 17.0391C94.8594 16.5078 94.9297 15.9258 94.9922 15.293C95.0078 15.0508 94.9492 14.9141 94.8164 14.8828C94.6914 14.8438 94.582 14.9375 94.4883 15.1641C94.1055 16.1875 93.5547 16.9492 92.8359 17.4492C92.125 17.9414 91.3164 18.1875 90.4102 18.1875ZM93.3633 14.0859C93.707 14.0859 94.0508 13.9219 94.3945 13.5938C94.7461 13.2656 94.9219 12.8477 94.9219 12.3398C94.9219 12.0664 94.8438 11.8438 94.6875 11.6719C94.5391 11.4922 94.3281 11.4023 94.0547 11.4023C93.5938 11.4023 93.1797 11.5625 92.8125 11.8828C92.4453 12.1953 92.2617 12.5859 92.2617 13.0547C92.2617 13.4141 92.3477 13.6758 92.5195 13.8398C92.6992 14.0039 92.9805 14.0859 93.3633 14.0859ZM106.617 18.1875C105.039 18.1875 103.785 17.6406 102.855 16.5469C101.926 15.4453 101.461 13.8516 101.461 11.7656C101.461 9.60156 101.922 7.89844 102.844 6.65625C103.773 5.40625 105.023 4.78125 106.594 4.78125C107.617 4.78125 108.461 5.01953 109.125 5.49609C109.797 5.97266 110.367 6.70703 110.836 7.69922C110.969 7.94141 111.109 8.05469 111.258 8.03906C111.406 8.01562 111.477 7.84766 111.469 7.53516C111.406 5.75391 111.18 3.78516 110.789 1.62891C110.758 1.44141 110.809 1.27734 110.941 1.13672C111.074 0.996094 111.242 0.90625 111.445 0.867188C111.906 0.820312 112.77 0.796875 114.035 0.796875C115.137 0.796875 115.902 0.828125 116.332 0.890625C116.504 0.914062 116.648 0.984375 116.766 1.10156C116.891 1.21094 116.957 1.35547 116.965 1.53516C117.113 3.33984 117.242 5.73047 117.352 8.70703C117.461 11.6836 117.516 14.543 117.516 17.2852C117.516 17.4727 117.457 17.6328 117.34 17.7656C117.223 17.8984 117.07 17.9766 116.883 18C116.227 18.0625 115.348 18.0938 114.246 18.0938C113.215 18.0938 112.414 18.0625 111.844 18C111.641 17.9766 111.477 17.8984 111.352 17.7656C111.234 17.625 111.191 17.457 111.223 17.2617C111.324 16.668 111.387 16.1055 111.41 15.5742C111.434 15.2852 111.375 15.1289 111.234 15.1055C111.102 15.0742 110.969 15.1836 110.836 15.4336C110.414 16.3008 109.844 16.9766 109.125 17.4609C108.406 17.9453 107.57 18.1875 106.617 18.1875ZM109.453 13.7578C110.023 13.7578 110.488 13.5586 110.848 13.1602C111.207 12.7617 111.387 12.2227 111.387 11.543C111.387 10.8555 111.207 10.3008 110.848 9.87891C110.488 9.44922 110.023 9.23438 109.453 9.23438C108.859 9.23438 108.383 9.44922 108.023 9.87891C107.664 10.3008 107.484 10.8555 107.484 11.543C107.484 12.2227 107.664 12.7617 108.023 13.1602C108.383 13.5586 108.859 13.7578 109.453 13.7578ZM126.012 18.1875C123.605 18.1875 121.715 17.5898 120.34 16.3945C118.973 15.1992 118.289 13.5039 118.289 11.3086C118.289 9.26172 118.938 7.66016 120.234 6.50391C121.531 5.33984 123.25 4.75781 125.391 4.75781C127.328 4.75781 128.836 5.14453 129.914 5.91797C130.992 6.69141 131.531 7.82422 131.531 9.31641C131.531 10.3633 131.043 11.2383 130.066 11.9414C129.09 12.6367 127.953 12.9844 126.656 12.9844C125.461 12.9844 124.391 12.6797 123.445 12.0703C123.25 11.9219 123.098 11.8984 122.988 12C122.887 12.1016 122.902 12.2617 123.035 12.4805C123.293 13.0352 123.77 13.4883 124.465 13.8398C125.168 14.1836 125.906 14.3555 126.68 14.3555C127.523 14.3555 128.273 14.2383 128.93 14.0039C129.594 13.7695 130.223 13.3906 130.816 12.8672C130.996 12.6406 131.191 12.5742 131.402 12.668C131.621 12.7539 131.746 12.9648 131.777 13.3008C131.895 14.3789 131.98 15.3867 132.035 16.3242C132.059 16.668 131.93 16.9375 131.648 17.1328C131.023 17.5 130.199 17.7695 129.176 17.9414C128.16 18.1055 127.105 18.1875 126.012 18.1875ZM125.273 11.0859C125.688 11.0859 126.016 10.9766 126.258 10.7578C126.508 10.5391 126.633 10.2266 126.633 9.82031C126.633 8.89062 126.129 8.42578 125.121 8.42578C124.637 8.42578 124.211 8.57422 123.844 8.87109C123.484 9.16797 123.305 9.53906 123.305 9.98438C123.305 10.3203 123.516 10.5898 123.938 10.793C124.367 10.9883 124.812 11.0859 125.273 11.0859ZM135.363 18.0938C134.559 18.0938 133.906 17.8672 133.406 17.4141C132.906 16.9531 132.656 16.3164 132.656 15.5039C132.656 14.6758 132.906 14.0312 133.406 13.5703C133.906 13.1016 134.559 12.8672 135.363 12.8672C136.184 12.8672 136.844 13.1016 137.344 13.5703C137.844 14.0312 138.094 14.6836 138.094 15.5273C138.094 16.332 137.84 16.9609 137.332 17.4141C136.832 17.8672 136.176 18.0938 135.363 18.0938Z" fill="black"/>
</svg>
