<svg width="23" height="23" viewBox="0 0 23 23" fill="none" xmlns="http://www.w3.org/2000/svg">
<ellipse cx="8.33716" cy="6.19812" rx="8.33716" ry="6.19812" transform="matrix(0.787365 -0.616488 0.637496 0.770453 0 10.2793)" fill="white"/>
<g clip-path="url(#clip0_2412_142)">
<path d="M21.6344 15.4421C21.5326 15.7025 21.3652 15.9339 21.1475 16.1149C20.9297 16.2959 20.6687 16.4208 20.3884 16.478C20.1035 16.5391 19.8074 16.529 19.5275 16.4489C19.2477 16.3687 18.9932 16.221 18.7878 16.0194L18.6974 15.9314C18.2443 15.4908 17.6667 15.1912 17.0381 15.071C16.4094 14.9507 15.7582 15.0152 15.1674 15.2562C14.5765 15.4972 14.0728 15.9038 13.7203 16.4242C13.3678 16.9446 13.1825 17.5553 13.188 18.1785L13.2242 22.1533L12.3881 22.2211C12.0887 22.2457 11.7883 22.2651 11.4833 22.2651C9.31957 22.2658 7.20493 21.6376 5.41074 20.4611C3.61655 19.2845 2.22465 17.6134 1.41363 15.662C0.6026 13.7106 0.409442 11.568 0.858935 9.50902C1.30843 7.4501 2.38007 5.56877 3.93636 4.10643C4.98124 3.11599 6.22236 2.34273 7.5842 1.83372C8.94604 1.3247 10.4001 1.09056 11.8579 1.14555C14.6128 1.27064 17.2189 2.39801 19.1595 4.30423C21.1002 6.21044 22.2338 8.75634 22.3356 11.4373C22.3722 12.8039 22.134 14.1643 21.6344 15.4421ZM16.0336 8.22471C15.7742 8.29176 15.541 8.43212 15.3636 8.62806C15.1862 8.824 15.0725 9.06671 15.0369 9.3255C15.0013 9.58429 15.0454 9.84755 15.1635 10.082C15.2817 10.3164 15.4687 10.5115 15.7008 10.6426C15.933 10.7736 16.1999 10.8348 16.4678 10.8183C16.7356 10.8018 16.9925 10.7085 17.2058 10.55C17.4191 10.3915 17.5794 10.1751 17.6662 9.92806C17.7531 9.68102 17.7628 9.41446 17.6939 9.16209C17.6482 8.99448 17.569 8.83727 17.4608 8.69944C17.3526 8.56162 17.2176 8.44587 17.0634 8.35883C16.9092 8.27178 16.7389 8.21513 16.5622 8.19212C16.3855 8.16911 16.2059 8.18018 16.0336 8.22471ZM11.5096 5.58422C11.2502 5.65127 11.017 5.79163 10.8396 5.98757C10.6622 6.1835 10.5485 6.42621 10.5129 6.68501C10.4773 6.9438 10.5213 7.20705 10.6395 7.44149C10.7577 7.67592 10.9447 7.871 11.1768 8.00206C11.409 8.13313 11.6758 8.19429 11.9437 8.17781C12.2116 8.16134 12.4684 8.06797 12.6818 7.90951C12.8951 7.75105 13.0553 7.53461 13.1422 7.28757C13.2291 7.04052 13.2387 6.77396 13.1699 6.5216C13.1242 6.35398 13.045 6.19677 12.9368 6.05895C12.8286 5.92112 12.6935 5.80538 12.5394 5.71833C12.3852 5.63129 12.2149 5.57464 12.0382 5.55163C11.8615 5.52862 11.6819 5.53969 11.5096 5.58422ZM6.98556 8.22471C6.72614 8.29176 6.49299 8.43212 6.31558 8.62806C6.13817 8.824 6.02447 9.06671 5.98886 9.3255C5.95324 9.58429 5.9973 9.84755 6.11548 10.082C6.23366 10.3164 6.42064 10.5115 6.65279 10.6426C6.88494 10.7736 7.15182 10.8348 7.4197 10.8183C7.68757 10.8018 7.94441 10.7085 8.15774 10.55C8.37107 10.3915 8.53131 10.1751 8.6182 9.92806C8.70508 9.68102 8.71471 9.41446 8.64587 9.16209C8.60015 8.99448 8.52094 8.83727 8.41274 8.69944C8.30456 8.56162 8.16951 8.44587 8.01533 8.35883C7.86115 8.27178 7.69085 8.21513 7.51416 8.19212C7.33747 8.16911 7.15785 8.18018 6.98556 8.22471ZM6.98556 13.5057C6.72614 13.5727 6.49299 13.7131 6.31558 13.909C6.13817 14.105 6.02447 14.3477 5.98886 14.6065C5.95324 14.8653 5.9973 15.1285 6.11548 15.363C6.23366 15.5974 6.42064 15.7925 6.65279 15.9235C6.88494 16.0546 7.15182 16.1158 7.4197 16.0993C7.68757 16.0828 7.94441 15.9894 8.15774 15.831C8.37107 15.6725 8.53131 15.4561 8.6182 15.209C8.70508 14.962 8.71471 14.6954 8.64587 14.4431C8.60015 14.2755 8.52094 14.1183 8.41274 13.9804C8.30456 13.8426 8.16951 13.7269 8.01533 13.6398C7.86115 13.5528 7.69085 13.4961 7.51416 13.4731C7.33747 13.4501 7.15785 13.4612 6.98556 13.5057Z" fill="#374957"/>
</g>
<defs>
<clipPath id="clip0_2412_142">
<rect width="21.7153" height="21.1239" fill="white" transform="translate(0.547852 1.13965)"/>
</clipPath>
</defs>
</svg>
