<svg width="385" height="73" viewBox="0 0 385 73" fill="none" xmlns="http://www.w3.org/2000/svg">
<rect y="1.24023" width="380.956" height="71.757" rx="35.8785" transform="rotate(-0.103758 0 1.24023)" fill="#B4EAED"/>
<path d="M54.3246 35.3178L58.5485 35.2968C61.1085 35.284 62.158 33.9668 62.1487 32.1108C62.1399 30.3508 61.0774 29.0441 58.5175 29.0568L54.2935 29.0779L54.3246 35.3178ZM54.381 46.6457L49.9331 46.6678L49.8272 25.4201L59.2031 25.3734C63.3631 25.3527 66.0342 28.3794 66.0533 32.2193C66.0726 36.0913 63.4305 38.8885 59.2705 38.9092L54.3426 38.9338L54.381 46.6457ZM71.2826 46.5615L67.1226 46.5822L67.0155 25.0785L71.1754 25.0577L71.2826 46.5615ZM82.5349 40.5213L82.5583 38.7932C82.1443 39.2113 81.4095 39.4389 79.8749 39.7346C77.5092 40.1944 76.7445 40.8702 76.7512 42.2142C76.7571 43.3982 77.464 43.9707 78.776 43.9641C80.9199 43.9534 82.5121 42.3775 82.5349 40.5213ZM86.7566 46.4844L82.8847 46.5037C82.7548 46.1203 82.656 45.5768 82.6217 45.097C81.6351 46.1899 79.9748 46.9342 77.8628 46.9447C74.2788 46.9626 72.6061 45.2109 72.5933 42.6509C72.5707 38.107 75.6081 37.5798 79.7972 36.9829C81.8757 36.6846 82.4497 36.2657 82.4442 35.1777C82.4391 34.1537 81.4121 33.5509 79.7801 33.559C77.8922 33.5684 77.1288 34.5002 76.9438 35.9091L73.0719 35.9284C73.1196 32.6642 74.9003 30.3833 79.9562 30.3581C84.9481 30.3332 86.6873 32.5646 86.707 36.5325L86.7566 46.4844ZM97.4877 40.1589L97.4673 36.0629L101.339 36.0436L101.362 40.5236C101.378 43.8515 99.473 46.8371 95.0251 46.8592C90.4171 46.8822 88.5785 43.9473 88.5616 40.5553L88.4915 26.4755L92.5874 26.4551L92.6086 30.711L101.313 30.6677L101.327 33.6117L92.6233 33.655L92.6555 40.1189C92.6654 42.1029 93.3751 43.2514 95.0711 43.2429C96.7351 43.2346 97.4975 42.1108 97.4877 40.1589ZM106.98 36.9755L113.412 36.9435C113.336 34.6078 111.795 33.4955 110.163 33.5036C108.499 33.5119 107.129 34.7988 106.98 36.9755ZM117.713 39.5461L106.865 39.6001C107.005 41.9675 108.356 43.4968 110.404 43.4866C111.748 43.4799 112.929 42.802 113.212 41.7126L117.5 41.6912C116.556 44.9279 113.973 46.7648 110.613 46.7816C105.365 46.8077 102.727 43.9408 102.698 38.2449C102.674 33.3809 105.442 30.2311 110.274 30.207C115.106 30.183 117.682 33.3062 117.713 39.5461ZM123.662 46.3006L119.566 46.321L119.503 33.5211L117.167 33.5328L117.152 30.5888L119.488 30.5772C119.469 26.7372 121.667 24.8062 126.147 24.7839L126.164 28.1439C124.052 28.1544 123.575 28.7328 123.584 30.5568L126.272 30.5434L126.287 33.4873L123.599 33.5007L123.662 46.3006ZM134.069 43.1767C136.597 43.1641 137.869 41.5577 137.853 38.3578C137.837 35.1578 136.55 33.5962 134.022 33.6088C131.494 33.6214 130.221 35.1957 130.237 38.3957C130.253 41.5957 131.541 43.1893 134.069 43.1767ZM134.087 46.6646C128.999 46.69 125.974 43.313 125.949 38.4171C125.925 33.4251 129.012 30.1137 134.004 30.0888C138.932 30.0643 142.02 33.3129 142.045 38.3369C142.07 43.3288 138.983 46.6402 134.087 46.6646ZM147.75 46.1806L143.59 46.2013L143.512 30.4575L147.416 30.438L147.425 32.326C148.791 30.2072 150.39 30.0072 152.086 29.9988L152.63 29.9961L152.651 34.252C152.267 34.1899 151.883 34.1598 151.499 34.1617C148.939 34.1745 147.697 35.4607 147.71 37.9887L147.75 46.1806ZM176.399 46.0379L172.335 46.0581L172.288 36.5222C172.278 34.6342 171.28 33.2952 169.808 33.3025C168.272 33.3102 167.159 34.7557 167.168 36.6757L167.215 46.0836L163.055 46.1043L163.008 36.6324C162.996 34.1045 162.32 33.4678 160.496 33.4769C158.833 33.4852 157.974 34.5135 157.984 36.5615L158.031 46.1294L153.872 46.1501L153.793 30.4063L157.697 30.3868L157.709 32.6908C158.754 30.6056 160.223 29.9582 162.303 29.9479C164.447 29.9372 165.474 30.6041 166.699 32.422C167.555 30.6897 168.959 29.9147 170.943 29.9048C174.111 29.8891 176.33 32.182 176.345 35.126L176.399 46.0379ZM181.885 36.6024L188.317 36.5704C188.242 34.2347 186.7 33.1224 185.068 33.1305C183.404 33.1388 182.034 34.4256 181.885 36.6024ZM192.618 39.173L181.77 39.227C181.91 41.5944 183.262 43.1236 185.31 43.1134C186.654 43.1067 187.834 42.4289 188.117 41.3394L192.405 41.3181C191.461 44.5548 188.878 46.3917 185.518 46.4084C180.27 46.4346 177.632 43.5677 177.604 37.8718C177.579 33.0078 180.348 29.858 185.18 29.8339C190.012 29.8099 192.587 32.9331 192.618 39.173ZM209.25 42.8982C211.233 42.8883 212.76 41.0247 212.747 38.3687C212.73 34.9447 211.538 33.2547 209.234 33.2661C206.802 33.2783 205.658 34.916 205.674 38.1479C205.688 40.9639 207.17 42.9085 209.25 42.8982ZM216.72 45.837L212.72 45.8569L212.679 43.9371C211.695 45.542 210.226 46.2854 208.306 46.2949C204.338 46.3147 201.475 43.1929 201.448 37.881C201.425 33.113 203.808 29.7411 207.872 29.7209C209.824 29.7112 211.364 30.5035 212.556 32.1616L212.517 24.3537L216.613 24.3333L216.72 45.837ZM222.447 36.4004L228.879 36.3683C228.804 34.0327 227.262 32.9203 225.63 32.9285C223.966 32.9368 222.596 34.2236 222.447 36.4004ZM233.18 38.9709L222.332 39.025C222.472 41.3923 223.824 42.9216 225.872 42.9114C227.216 42.9047 228.396 42.2268 228.679 41.1374L232.967 41.116C232.023 44.3528 229.44 46.1896 226.08 46.2064C220.832 46.2325 218.194 43.3656 218.166 37.6697C218.141 32.8058 220.91 29.6559 225.742 29.6319C230.574 29.6078 233.149 32.731 233.18 38.9709ZM264.898 45.597L260.834 45.6173L260.787 36.0814C260.777 34.1934 259.779 32.8544 258.307 32.8617C256.771 32.8693 255.658 34.3149 255.667 36.2349L255.714 45.6428L251.554 45.6635L251.507 36.1916C251.495 33.6636 250.819 33.027 248.995 33.0361C247.331 33.0444 246.473 34.0727 246.483 36.1206L246.53 45.6885L242.37 45.7092L242.292 29.9654L246.196 29.946L246.207 32.25C247.253 30.1647 248.722 29.5174 250.802 29.507C252.946 29.4964 253.973 30.1632 255.198 31.9812C256.054 30.2489 257.458 29.4739 259.442 29.464C262.61 29.4482 264.829 31.7412 264.844 34.6852L264.898 45.597ZM276.001 39.5576L276.025 37.8295C275.611 38.2476 274.876 38.4752 273.341 38.7709C270.976 39.2307 270.211 39.9065 270.218 41.2505C270.223 42.4345 270.93 43.0069 272.242 43.0004C274.386 42.9897 275.978 41.4138 276.001 39.5576ZM280.223 45.5207L276.351 45.54C276.221 45.1566 276.122 44.6131 276.088 44.1333C275.101 45.2262 273.441 45.9705 271.329 45.981C267.745 45.9988 266.072 44.2472 266.06 41.6872C266.037 37.1432 269.074 36.6161 273.264 36.0192C275.342 35.7209 275.916 35.302 275.911 34.214C275.905 33.19 274.878 32.5871 273.246 32.5953C271.359 32.6047 270.595 33.5365 270.41 34.9454L266.538 34.9647C266.586 31.7004 268.367 29.4195 273.423 29.3944C278.414 29.3695 280.154 31.6009 280.173 35.5688L280.223 45.5207ZM286.217 45.4908L282.057 45.5115L281.979 29.7677L285.883 29.7483L285.892 31.6363C287.258 29.5174 288.857 29.3175 290.553 29.309L291.097 29.3063L291.118 33.5623C290.734 33.5002 290.35 33.4701 289.966 33.472C287.406 33.4848 286.164 34.771 286.177 37.2989L286.217 45.4908ZM310.158 46.2356L314.062 46.2161C314.082 50.2801 311.503 52.821 308.111 52.8379C304.687 52.8549 302.145 50.1795 302.126 46.3076L302.112 43.4596C300.936 45.0655 299.436 45.841 297.516 45.8505C293.452 45.8708 291.035 42.5228 291.011 37.7548C290.985 32.4429 293.817 29.2928 297.785 29.273C299.705 29.2634 301.181 29.9921 302.181 31.5871L302.203 29.667L306.203 29.6471L306.286 46.3189C306.297 48.4628 307.036 49.1632 308.348 49.1566C309.564 49.1506 310.168 48.3156 310.158 46.2356ZM298.842 42.2919C301.146 42.2804 302.322 40.5785 302.305 37.1546C302.291 34.4986 300.746 32.6503 298.762 32.6602C296.682 32.6705 295.22 34.6298 295.234 37.4458C295.25 40.6778 296.41 42.304 298.842 42.2919ZM321.952 45.3128L318.016 45.3324L318.005 43.1245C316.926 44.9218 315.298 45.762 313.122 45.7728C309.986 45.7884 307.766 43.4635 307.749 40.0075L307.697 29.6396L311.857 29.6189L311.906 39.3468C311.916 41.3308 312.816 42.2863 314.576 42.2775C316.688 42.267 317.801 40.7574 317.791 38.6775L317.745 29.5896L321.873 29.569L321.952 45.3128ZM327.665 35.8762L334.097 35.8442C334.021 33.5086 332.479 32.3962 330.847 32.4043C329.184 32.4126 327.814 33.6995 327.665 35.8762ZM338.398 38.4468L327.55 38.5008C327.69 40.8682 329.041 42.3975 331.089 42.3873C332.433 42.3806 333.614 41.7027 333.896 40.6133L338.184 40.5919C337.24 43.8286 334.658 45.6655 331.298 45.6823C326.05 45.7084 323.411 42.8415 323.383 37.1456C323.359 32.2816 326.127 29.1318 330.959 29.1077C335.791 29.0837 338.367 32.2069 338.398 38.4468Z" fill="white"/>
</svg>
