<svg width="453" height="450" viewBox="0 0 453 450" fill="none" xmlns="http://www.w3.org/2000/svg">
<path d="M167.258 41.3113C164.571 34.7644 159.345 29.4473 152.601 26.7092C143.535 23.0252 133.191 24.5903 125.617 30.7639L125.613 30.7676C93.5915 56.9128 59.6986 102.915 65.3854 152.949C67.5787 172.246 77.1755 189.575 92.37 201.676L92.3755 201.681C107.583 213.769 126.616 219.234 145.914 217.041C195.947 211.354 233.161 168.001 251.444 130.929C255.782 122.145 254.97 111.728 249.35 103.719L249.35 103.719C245.171 97.7658 238.824 93.8676 231.849 92.715L231.973 92.455C232.176 92.0302 232.379 91.6043 232.583 91.1775C240.361 74.9074 248.827 57.1972 251.72 46.3265C254.874 34.491 250.815 22.2805 241.228 14.6499C231.645 7.02286 218.842 5.79217 208.004 11.5333C197.927 16.863 182.28 29.3357 168.023 40.7015L167.481 41.1331C167.481 41.1332 167.481 41.1334 167.481 41.1335C167.406 41.1928 167.332 41.2521 167.258 41.3113Z" fill="#FFFCCC" fill-opacity="0.96" stroke="white" stroke-width="15"/>
<circle cx="151.576" cy="124.98" r="56.2997" fill="white"/>
<g clip-path="url(#clip0_292_2668)">
<path d="M185.928 137.509C185.58 138.424 185.008 139.237 184.264 139.874C183.519 140.51 182.627 140.949 181.669 141.15C180.695 141.364 179.682 141.329 178.725 141.047C177.769 140.766 176.899 140.246 176.196 139.538L175.887 139.229C174.338 137.68 172.363 136.627 170.214 136.205C168.065 135.782 165.839 136.009 163.819 136.856C161.799 137.703 160.076 139.132 158.871 140.961C157.666 142.79 157.033 144.936 157.052 147.126L157.175 161.096L154.317 161.334C153.293 161.421 152.266 161.489 151.224 161.489C143.826 161.491 136.596 159.283 130.462 155.148C124.328 151.013 119.57 145.14 116.797 138.282C114.024 131.423 113.364 123.893 114.9 116.657C116.437 109.421 120.101 102.809 125.422 97.6691C128.994 94.1882 133.237 91.4705 137.893 89.6816C142.549 87.8926 147.52 87.0697 152.504 87.263C161.923 87.7026 170.833 91.6648 177.467 98.3643C184.102 105.064 187.978 114.012 188.326 123.434C188.451 128.237 187.636 133.018 185.928 137.509ZM166.78 112.143C165.893 112.379 165.096 112.872 164.49 113.561C163.883 114.249 163.494 115.102 163.373 116.012C163.251 116.921 163.402 117.847 163.806 118.671C164.21 119.494 164.849 120.18 165.643 120.641C166.436 121.101 167.349 121.316 168.264 121.258C169.18 121.201 170.058 120.872 170.788 120.315C171.517 119.759 172.065 118.998 172.362 118.13C172.659 117.261 172.692 116.325 172.457 115.438C172.3 114.848 172.029 114.296 171.66 113.812C171.29 113.327 170.828 112.92 170.301 112.614C169.774 112.309 169.192 112.109 168.587 112.029C167.983 111.948 167.369 111.987 166.78 112.143ZM151.313 102.863C150.426 103.099 149.629 103.592 149.023 104.281C148.416 104.969 148.027 105.822 147.906 106.732C147.784 107.641 147.935 108.566 148.339 109.39C148.743 110.214 149.382 110.9 150.176 111.361C150.969 111.821 151.882 112.036 152.798 111.978C153.713 111.92 154.591 111.592 155.321 111.035C156.05 110.478 156.598 109.718 156.895 108.849C157.192 107.981 157.225 107.044 156.99 106.157C156.833 105.568 156.562 105.016 156.193 104.531C155.823 104.047 155.361 103.64 154.834 103.334C154.307 103.028 153.725 102.829 153.12 102.748C152.516 102.668 151.902 102.706 151.313 102.863ZM135.846 112.143C134.959 112.379 134.162 112.872 133.556 113.561C132.949 114.249 132.561 115.102 132.439 116.012C132.317 116.921 132.468 117.847 132.872 118.671C133.276 119.494 133.915 120.18 134.709 120.641C135.502 121.101 136.415 121.316 137.331 121.258C138.246 121.201 139.125 120.872 139.854 120.315C140.583 119.759 141.131 118.998 141.428 118.13C141.725 117.261 141.758 116.325 141.523 115.438C141.366 114.848 141.096 114.296 140.726 113.812C140.356 113.327 139.894 112.92 139.367 112.614C138.84 112.309 138.258 112.109 137.654 112.029C137.049 111.948 136.435 111.987 135.846 112.143ZM135.846 130.703C134.959 130.939 134.162 131.432 133.556 132.121C132.949 132.81 132.561 133.663 132.439 134.572C132.317 135.482 132.468 136.407 132.872 137.231C133.276 138.055 133.915 138.74 134.709 139.201C135.502 139.662 136.415 139.877 137.331 139.819C138.246 139.761 139.125 139.433 139.854 138.876C140.583 138.319 141.131 137.558 141.428 136.69C141.725 135.822 141.758 134.885 141.523 133.998C141.366 133.409 141.096 132.856 140.726 132.372C140.356 131.887 139.894 131.481 139.367 131.175C138.84 130.869 138.258 130.67 137.654 130.589C137.049 130.508 136.435 130.547 135.846 130.703Z" fill="#374957"/>
</g>
<rect x="142.755" y="191.256" width="180.062" height="180.062" rx="22.5" transform="rotate(49.8976 142.755 191.256)" fill="#E6DFFF" stroke="white" stroke-width="15"/>
<ellipse cx="131.982" cy="318.959" rx="56.9183" ry="56.9183" transform="rotate(8.15865 131.982 318.959)" fill="white"/>
<g clip-path="url(#clip1_292_2668)">
<path d="M115.735 358.921C118.221 362.182 121.899 364.324 125.962 364.877C130.025 365.43 134.142 364.348 137.409 361.87L171.881 335.655C175.142 333.169 177.283 329.491 177.836 325.428C178.389 321.365 177.308 317.248 174.829 313.981L157.977 291.821L98.8823 336.761L115.735 358.921ZM149.167 316.009C149.898 315.453 150.777 315.127 151.693 315.071C152.609 315.015 153.521 315.231 154.313 315.694C155.106 316.156 155.744 316.843 156.146 317.668C156.549 318.493 156.697 319.418 156.574 320.328C156.45 321.237 156.059 322.089 155.451 322.777C154.843 323.464 154.045 323.956 153.158 324.189C152.27 324.423 151.333 324.388 150.466 324.089C149.598 323.791 148.838 323.241 148.283 322.511C147.538 321.531 147.212 320.296 147.378 319.077C147.544 317.857 148.188 316.754 149.167 316.009ZM136.856 325.371C137.586 324.816 138.465 324.489 139.381 324.433C140.297 324.377 141.209 324.594 142.002 325.056C142.795 325.518 143.433 326.205 143.835 327.03C144.237 327.855 144.386 328.781 144.262 329.69C144.139 330.599 143.748 331.452 143.14 332.139C142.532 332.826 141.734 333.318 140.846 333.552C139.959 333.785 139.022 333.751 138.154 333.452C137.286 333.153 136.527 332.604 135.971 331.873C135.226 330.894 134.901 329.658 135.067 328.439C135.233 327.22 135.876 326.116 136.856 325.371ZM124.545 334.734C125.275 334.178 126.154 333.852 127.07 333.796C127.986 333.74 128.898 333.956 129.691 334.419C130.483 334.881 131.121 335.568 131.524 336.393C131.926 337.218 132.075 338.143 131.951 339.053C131.827 339.962 131.437 340.814 130.829 341.501C130.22 342.189 129.422 342.68 128.535 342.914C127.647 343.148 126.71 343.113 125.843 342.814C124.975 342.516 124.215 341.966 123.66 341.236C122.915 340.256 122.59 339.021 122.756 337.801C122.921 336.582 123.565 335.478 124.545 334.734Z" fill="#374957"/>
<path d="M130.686 281.485L128.223 283.357L126.351 280.895C125.854 280.242 125.118 279.813 124.306 279.702C123.493 279.592 122.669 279.809 122.016 280.305C121.363 280.802 120.934 281.538 120.823 282.351C120.713 283.164 120.93 283.987 121.426 284.64L123.299 287.102L103.6 302.082L101.728 299.62C101.231 298.967 100.496 298.538 99.6827 298.427C98.8698 298.317 98.0462 298.534 97.3932 299.03C96.7402 299.527 96.3111 300.263 96.2005 301.075C96.0899 301.888 96.3068 302.712 96.8034 303.365L98.6759 305.827L96.2136 307.7C92.9526 310.186 90.8108 313.864 90.2579 317.927C89.7051 321.99 90.7864 326.107 93.2647 329.374L95.1372 331.836L154.232 286.896L152.359 284.434C149.873 281.173 146.195 279.031 142.132 278.478C138.069 277.925 133.953 279.007 130.686 281.485Z" fill="#374957"/>
</g>
<path d="M236.246 174.934C213.181 186.945 198.272 199.288 190.102 211.904C181.415 225.318 180.602 238.692 185.15 250.845C189.534 262.559 198.648 272.532 208.733 280.493C218.069 287.863 228.736 293.901 238.609 298.327C251.151 324.442 263.683 341.481 276.203 351.182C289.513 361.497 302.949 363.555 315.351 359.163C327.143 354.986 336.855 345.376 344.404 334.776C351.327 325.053 356.905 313.833 360.946 303.363C385.936 293.503 402.12 282.342 410.993 270.085C420.611 256.798 421.141 242.905 416.169 230.281C411.383 218.131 401.652 207.408 391.092 198.825C381.375 190.928 370.435 184.422 360.637 179.923C350.093 155.174 338.713 138.869 326.631 129.522C313.692 119.511 300.215 117.724 287.604 121.71C275.503 125.535 264.891 134.437 256.262 144.453C248.158 153.859 241.341 164.784 236.246 174.934Z" fill="#B4EAED" stroke="white" stroke-width="15"/>
<ellipse cx="300.227" cy="240.398" rx="56.2997" ry="56.2997" transform="rotate(-25.8715 300.227 240.398)" fill="white"/>
<g clip-path="url(#clip2_292_2668)">
<path d="M316.455 207.933L309.011 211.544C308.534 211.775 308.136 212.143 307.868 212.6C307.6 213.058 307.474 213.584 307.505 214.113C307.536 214.643 307.723 215.151 308.043 215.573C308.363 215.996 308.801 216.315 309.302 216.488L313.192 217.838L308.736 230.681C308.489 231.343 307.997 231.884 307.361 232.193C306.725 232.501 305.995 232.552 305.323 232.336L304.713 232.122C302.696 231.474 300.506 231.628 298.6 232.552C296.694 233.477 295.217 235.101 294.477 237.086L288.141 255.354C287.908 256.029 287.953 256.768 288.265 257.41C288.577 258.051 289.132 258.542 289.806 258.775C290.48 259.008 291.22 258.963 291.861 258.651C292.503 258.339 292.994 257.785 293.227 257.11L299.563 238.842C299.809 238.179 300.301 237.637 300.937 237.329C301.573 237.02 302.304 236.969 302.976 237.186L303.586 237.4C305.603 238.047 307.792 237.892 309.698 236.968C311.604 236.044 313.081 234.421 313.821 232.436L318.277 219.591L322.167 220.94C322.666 221.108 323.204 221.125 323.713 220.989C324.222 220.852 324.679 220.569 325.028 220.175C325.377 219.78 325.602 219.292 325.675 218.77C325.748 218.248 325.666 217.716 325.438 217.241L321.828 209.797C321.363 208.837 320.535 208.102 319.527 207.752C318.52 207.403 317.415 207.468 316.455 207.933Z" fill="#374957"/>
<path d="M338.718 250.768L295.298 271.825C293.379 272.756 291.168 272.886 289.153 272.187C287.138 271.488 285.483 270.017 284.552 268.098L263.523 224.736C263.213 224.096 262.661 223.606 261.989 223.373C261.317 223.14 260.581 223.183 259.941 223.493C259.301 223.804 258.811 224.355 258.578 225.027C258.345 225.699 258.388 226.436 258.698 227.075L279.727 270.438C281.282 273.634 284.041 276.082 287.398 277.247C290.756 278.411 294.438 278.197 297.638 276.65L341.058 255.593C341.698 255.282 342.188 254.731 342.421 254.059C342.654 253.387 342.611 252.65 342.3 252.011C341.99 251.371 341.439 250.881 340.767 250.648C340.095 250.415 339.358 250.458 338.718 250.768Z" fill="#374957"/>
</g>
<defs>
<clipPath id="clip0_292_2668">
<rect width="74.2413" height="74.2413" fill="white" transform="translate(113.837 87.2412)"/>
</clipPath>
<clipPath id="clip1_292_2668">
<rect width="74.2413" height="74.2413" fill="white" transform="translate(80.1572 312.138) rotate(-37.2519)"/>
</clipPath>
<clipPath id="clip2_292_2668">
<rect width="64.3425" height="64.3425" fill="white" transform="translate(257.529 224.663) rotate(-25.8715)"/>
</clipPath>
</defs>
</svg>
