<svg width="453" height="450" viewBox="0 0 453 450" fill="none" xmlns="http://www.w3.org/2000/svg">
<path d="M167.257 41.3113C164.571 34.7644 159.344 29.4473 152.6 26.7092C143.534 23.0252 133.19 24.5903 125.617 30.7639L125.612 30.7676C93.591 56.9128 59.6981 102.915 65.3849 152.949C67.5782 172.246 77.175 189.575 92.3695 201.676L92.375 201.681C107.583 213.769 126.615 219.234 145.913 217.041C195.946 211.354 233.16 168.001 251.444 130.929C255.781 122.145 254.97 111.728 249.35 103.719L249.349 103.719C245.171 97.7658 238.824 93.8676 231.848 92.715L231.972 92.455C232.175 92.0302 232.379 91.6043 232.583 91.1775C240.361 74.9074 248.827 57.1972 251.72 46.3265C254.874 34.491 250.814 22.2805 241.227 14.6499C231.644 7.02286 218.841 5.79217 208.004 11.5333C197.926 16.863 182.28 29.3357 168.022 40.7015L167.481 41.1331C167.481 41.1332 167.48 41.1334 167.48 41.1335C167.406 41.1928 167.332 41.2521 167.257 41.3113Z" fill="#FFD6D3" stroke="white" stroke-width="15"/>
<circle cx="151.575" cy="124.98" r="56.2997" fill="white"/>
<g clip-path="url(#clip0_328_1421)">
<path d="M185.928 137.509C185.58 138.424 185.007 139.237 184.263 139.874C183.519 140.51 182.626 140.949 181.668 141.15C180.694 141.364 179.681 141.329 178.725 141.047C177.768 140.766 176.898 140.246 176.196 139.538L175.886 139.229C174.338 137.68 172.363 136.627 170.214 136.205C168.064 135.782 165.838 136.009 163.818 136.856C161.798 137.703 160.076 139.132 158.871 140.961C157.665 142.79 157.032 144.936 157.051 147.126L157.175 161.096L154.316 161.334C153.292 161.421 152.265 161.489 151.223 161.489C143.825 161.491 136.596 159.283 130.462 155.148C124.328 151.013 119.569 145.14 116.796 138.282C114.023 131.423 113.363 123.893 114.9 116.657C116.436 109.421 120.1 102.809 125.421 97.6691C128.993 94.1882 133.236 91.4705 137.892 89.6816C142.548 87.8926 147.519 87.0697 152.503 87.263C161.922 87.7026 170.832 91.6648 177.467 98.3643C184.101 105.064 187.977 114.012 188.325 123.434C188.45 128.237 187.636 133.018 185.928 137.509ZM166.779 112.143C165.893 112.379 165.095 112.872 164.489 113.561C163.882 114.249 163.494 115.102 163.372 116.012C163.25 116.921 163.401 117.847 163.805 118.671C164.209 119.494 164.848 120.18 165.642 120.641C166.435 121.101 167.348 121.316 168.264 121.258C169.18 121.201 170.058 120.872 170.787 120.315C171.516 119.759 172.064 118.998 172.361 118.13C172.658 117.261 172.691 116.325 172.456 115.438C172.3 114.848 172.029 114.296 171.659 113.812C171.289 113.327 170.827 112.92 170.3 112.614C169.773 112.309 169.191 112.109 168.587 112.029C167.983 111.948 167.369 111.987 166.779 112.143ZM151.313 102.863C150.426 103.099 149.629 103.592 149.022 104.281C148.415 104.969 148.027 105.822 147.905 106.732C147.783 107.641 147.934 108.566 148.338 109.39C148.742 110.214 149.381 110.9 150.175 111.361C150.969 111.821 151.881 112.036 152.797 111.978C153.713 111.92 154.591 111.592 155.32 111.035C156.049 110.478 156.597 109.718 156.894 108.849C157.191 107.981 157.224 107.044 156.989 106.157C156.833 105.568 156.562 105.016 156.192 104.531C155.822 104.047 155.36 103.64 154.833 103.334C154.306 103.028 153.724 102.829 153.12 102.748C152.516 102.668 151.902 102.706 151.313 102.863ZM135.846 112.143C134.959 112.379 134.162 112.872 133.555 113.561C132.949 114.249 132.56 115.102 132.438 116.012C132.316 116.921 132.467 117.847 132.871 118.671C133.275 119.494 133.914 120.18 134.708 120.641C135.502 121.101 136.414 121.316 137.33 121.258C138.246 121.201 139.124 120.872 139.853 120.315C140.582 119.759 141.13 118.998 141.427 118.13C141.724 117.261 141.757 116.325 141.522 115.438C141.366 114.848 141.095 114.296 140.725 113.812C140.355 113.327 139.893 112.92 139.366 112.614C138.839 112.309 138.257 112.109 137.653 112.029C137.049 111.948 136.435 111.987 135.846 112.143ZM135.846 130.703C134.959 130.939 134.162 131.432 133.555 132.121C132.949 132.81 132.56 133.663 132.438 134.572C132.316 135.482 132.467 136.407 132.871 137.231C133.275 138.055 133.914 138.74 134.708 139.201C135.502 139.662 136.414 139.877 137.33 139.819C138.246 139.761 139.124 139.433 139.853 138.876C140.582 138.319 141.13 137.558 141.427 136.69C141.724 135.822 141.757 134.885 141.522 133.998C141.366 133.409 141.095 132.856 140.725 132.372C140.355 131.887 139.893 131.481 139.366 131.175C138.839 130.869 138.257 130.67 137.653 130.589C137.049 130.508 136.435 130.547 135.846 130.703Z" fill="#374957"/>
</g>
<rect x="142.755" y="191.256" width="180.062" height="180.062" rx="22.5" transform="rotate(49.8976 142.755 191.256)" fill="#E6DFFF" stroke="white" stroke-width="15"/>
<ellipse cx="131.982" cy="318.959" rx="56.9183" ry="56.9183" transform="rotate(8.15865 131.982 318.959)" fill="white"/>
<g clip-path="url(#clip1_328_1421)">
<path d="M115.734 358.921C118.22 362.182 121.898 364.324 125.961 364.877C130.025 365.43 134.141 364.348 137.408 361.87L171.88 335.655C175.141 333.169 177.283 329.491 177.836 325.428C178.389 321.365 177.307 317.248 174.829 313.981L157.977 291.821L98.8818 336.761L115.734 358.921ZM149.167 316.009C149.897 315.453 150.776 315.127 151.692 315.071C152.608 315.015 153.52 315.231 154.313 315.694C155.106 316.156 155.744 316.843 156.146 317.668C156.548 318.493 156.697 319.418 156.573 320.328C156.45 321.237 156.059 322.089 155.451 322.777C154.843 323.464 154.045 323.956 153.157 324.189C152.27 324.423 151.333 324.388 150.465 324.089C149.597 323.791 148.838 323.241 148.282 322.511C147.537 321.531 147.212 320.296 147.378 319.077C147.544 317.857 148.187 316.754 149.167 316.009ZM136.855 325.371C137.586 324.816 138.465 324.489 139.381 324.433C140.297 324.377 141.209 324.594 142.002 325.056C142.794 325.518 143.432 326.205 143.835 327.03C144.237 327.855 144.386 328.781 144.262 329.69C144.138 330.599 143.748 331.452 143.139 332.139C142.531 332.826 141.733 333.318 140.846 333.552C139.958 333.785 139.021 333.751 138.154 333.452C137.286 333.153 136.526 332.604 135.971 331.873C135.226 330.894 134.901 329.658 135.066 328.439C135.232 327.22 135.876 326.116 136.855 325.371ZM124.544 334.734C125.275 334.178 126.153 333.852 127.069 333.796C127.985 333.74 128.897 333.956 129.69 334.419C130.483 334.881 131.121 335.568 131.523 336.393C131.925 337.218 132.074 338.143 131.95 339.053C131.827 339.962 131.436 340.814 130.828 341.501C130.22 342.189 129.422 342.68 128.534 342.914C127.647 343.148 126.71 343.113 125.842 342.814C124.974 342.516 124.215 341.966 123.659 341.236C122.914 340.256 122.589 339.021 122.755 337.801C122.921 336.582 123.564 335.478 124.544 334.734Z" fill="#374957"/>
<path d="M130.686 281.485L128.223 283.357L126.351 280.895C125.854 280.242 125.118 279.813 124.306 279.702C123.493 279.592 122.669 279.809 122.016 280.305C121.363 280.802 120.934 281.538 120.823 282.351C120.713 283.164 120.93 283.987 121.426 284.64L123.299 287.102L103.6 302.082L101.728 299.62C101.231 298.967 100.496 298.538 99.6827 298.427C98.8698 298.317 98.0462 298.534 97.3932 299.03C96.7402 299.527 96.3111 300.263 96.2005 301.075C96.0899 301.888 96.3068 302.712 96.8034 303.365L98.6759 305.827L96.2136 307.7C92.9526 310.186 90.8108 313.864 90.2579 317.927C89.7051 321.99 90.7864 326.107 93.2647 329.374L95.1372 331.836L154.232 286.896L152.359 284.434C149.873 281.173 146.195 279.031 142.132 278.478C138.069 277.925 133.953 279.007 130.686 281.485Z" fill="#374957"/>
</g>
<path d="M236.246 174.934C213.181 186.945 198.271 199.288 190.101 211.904C181.414 225.318 180.601 238.692 185.15 250.845C189.533 262.559 198.647 272.532 208.733 280.493C218.069 287.863 228.735 293.901 238.609 298.327C251.15 324.442 263.683 341.481 276.202 351.182C289.512 361.497 302.949 363.555 315.351 359.163C327.142 354.986 336.854 345.376 344.403 334.776C351.327 325.053 356.904 313.833 360.945 303.363C385.936 293.503 402.119 282.342 410.992 270.085C420.611 256.798 421.141 242.905 416.169 230.281C411.383 218.131 401.652 207.408 391.091 198.825C381.374 190.928 370.435 184.422 360.637 179.923C350.092 155.174 338.712 138.869 326.631 129.522C313.692 119.511 300.214 117.724 287.604 121.71C275.502 125.535 264.89 134.437 256.261 144.453C248.157 153.859 241.34 164.784 236.246 174.934Z" fill="#B4EAED" stroke="white" stroke-width="15"/>
<ellipse cx="300.227" cy="240.398" rx="56.2997" ry="56.2997" transform="rotate(-25.8715 300.227 240.398)" fill="white"/>
<g clip-path="url(#clip2_328_1421)">
<path d="M316.455 207.933L309.011 211.544C308.534 211.775 308.136 212.143 307.868 212.6C307.6 213.058 307.473 213.584 307.505 214.113C307.536 214.643 307.723 215.151 308.043 215.573C308.363 215.996 308.801 216.315 309.302 216.488L313.192 217.838L308.736 230.681C308.489 231.343 307.997 231.884 307.361 232.193C306.725 232.501 305.995 232.552 305.322 232.336L304.712 232.122C302.695 231.474 300.506 231.628 298.6 232.552C296.693 233.477 295.217 235.101 294.477 237.086L288.141 255.354C287.908 256.029 287.953 256.768 288.265 257.41C288.577 258.051 289.131 258.542 289.806 258.775C290.48 259.008 291.219 258.963 291.861 258.651C292.502 258.339 292.993 257.785 293.226 257.11L299.563 238.842C299.809 238.179 300.301 237.637 300.937 237.329C301.573 237.02 302.303 236.969 302.976 237.186L303.586 237.4C305.603 238.047 307.792 237.892 309.698 236.968C311.604 236.044 313.08 234.421 313.821 232.436L318.276 219.591L322.167 220.94C322.666 221.108 323.204 221.125 323.713 220.989C324.221 220.852 324.679 220.569 325.028 220.175C325.377 219.78 325.602 219.292 325.675 218.77C325.748 218.248 325.665 217.716 325.438 217.241L321.828 209.797C321.362 208.837 320.535 208.102 319.527 207.752C318.52 207.403 317.414 207.468 316.455 207.933Z" fill="#374957"/>
<path d="M338.718 250.768L295.298 271.825C293.379 272.756 291.168 272.886 289.153 272.187C287.137 271.488 285.482 270.017 284.552 268.098L263.523 224.736C263.212 224.096 262.661 223.606 261.989 223.373C261.317 223.14 260.58 223.183 259.941 223.493C259.301 223.804 258.81 224.355 258.577 225.027C258.344 225.699 258.388 226.436 258.698 227.075L279.727 270.438C281.282 273.634 284.04 276.082 287.398 277.247C290.756 278.411 294.438 278.197 297.638 276.65L341.058 255.593C341.698 255.282 342.188 254.731 342.421 254.059C342.654 253.387 342.61 252.65 342.3 252.011C341.99 251.371 341.438 250.881 340.767 250.648C340.095 250.415 339.358 250.458 338.718 250.768Z" fill="#374957"/>
</g>
<defs>
<clipPath id="clip0_328_1421">
<rect width="74.2413" height="74.2413" fill="white" transform="translate(113.836 87.2412)"/>
</clipPath>
<clipPath id="clip1_328_1421">
<rect width="74.2413" height="74.2413" fill="white" transform="translate(80.1572 312.138) rotate(-37.2519)"/>
</clipPath>
<clipPath id="clip2_328_1421">
<rect width="64.3425" height="64.3425" fill="white" transform="translate(257.528 224.663) rotate(-25.8715)"/>
</clipPath>
</defs>
</svg>
