<svg width="135" height="148" viewBox="0 0 135 148" fill="none" xmlns="http://www.w3.org/2000/svg">
<g filter="url(#filter0_d_392_1755)">
<path d="M110.114 58.6987C108.883 61.2628 107.681 63.7682 106.574 66.1318L110.201 65.7195C114.759 65.2015 119.231 67.2132 121.865 70.966C124.505 74.7281 124.884 79.6142 122.848 83.7365C111.212 107.331 88.0338 133.764 57.8666 137.193C46.572 138.477 35.4541 135.285 26.5506 128.208C17.6565 121.124 12.0507 111.001 10.7669 99.7063C7.33801 69.5385 27.8943 41.0143 48.2742 24.3742C51.8304 21.4752 56.6862 20.7418 60.9398 22.4709C65.1879 24.1956 68.1519 28.1024 68.6699 32.6602L69.0822 36.2875C71.132 34.6786 73.3037 32.9449 75.5312 31.1697C85.1248 23.5222 95.0517 15.6151 101.194 12.3667C106.532 9.53736 112.789 10.1316 117.526 13.9023C122.264 17.673 124.243 23.6423 122.688 29.4739C120.901 36.1887 115.418 47.6278 110.125 58.7025L110.114 58.6987Z" fill="#C4EDDB"/>
<path d="M111.552 62.6392C116.597 62.617 121.382 65.0554 124.321 69.2425L124.321 69.2427C127.59 73.9012 128.061 79.9575 125.538 85.0652C113.726 109.015 89.8801 136.574 58.2054 140.174C46.1199 141.547 34.209 138.128 24.6839 130.556L24.6817 130.555C15.1656 122.976 9.15969 112.13 7.78608 100.045C4.18579 68.3693 25.6897 38.9413 46.3768 22.0504L46.3787 22.0489C50.7827 18.4588 56.7975 17.5492 62.0683 19.6913C66.8075 21.6153 70.2572 25.7302 71.3682 30.651C71.9206 30.2112 72.4787 29.7663 73.0417 29.3176C73.2476 29.1534 73.4542 28.9888 73.6614 28.8236L73.8511 28.6724C83.2656 21.1677 93.3753 13.1087 99.7891 9.71605L111.552 62.6392ZM111.552 62.6392C111.581 62.5771 111.611 62.515 111.641 62.4528L111.655 62.4578L112.831 59.9962L113.151 59.3272C118.282 48.5925 123.746 37.1612 125.587 30.2467C127.45 23.2577 125.061 16.0652 119.395 11.555C113.73 7.04651 106.19 6.32451 99.7915 9.71476L111.552 62.6392Z" stroke="white" stroke-width="6"/>
</g>
<circle cx="61.7356" cy="82.686" r="37.169" fill="white"/>
<g clip-path="url(#clip0_392_1755)">
<path d="M84.1455 73.5395C83.1879 72.4359 82.0043 71.551 80.6749 70.9446C79.3455 70.3382 77.9013 70.0245 76.4401 70.0248H68.2936L68.9798 65.8566C69.2226 64.3887 68.9296 62.8825 68.1544 61.6127C67.3792 60.3428 66.1734 59.3939 64.7568 58.9391C63.3402 58.4842 61.8074 58.5537 60.4378 59.1349C59.0682 59.716 57.9532 60.7702 57.296 62.105L53.9753 68.8342V100.659H75.0105C77.4683 100.649 79.8408 99.7566 81.6965 98.1449C83.5521 96.5333 84.7676 94.3091 85.1217 91.8769L86.5615 81.6657C86.7651 80.2172 86.6547 78.7418 86.2379 77.3397C85.821 75.9376 85.1074 74.6416 84.1455 73.5395Z" fill="#374957"/>
<path d="M37.637 80.2353V90.4466C37.6402 93.1538 38.7171 95.7492 40.6314 97.6635C42.5456 99.5777 45.141 100.655 47.8482 100.658H49.8905V70.024H47.8482C45.141 70.0273 42.5456 71.1042 40.6314 73.0184C38.7171 74.9327 37.6402 77.5281 37.637 80.2353V80.2353Z" fill="#374957"/>
</g>
<defs>
<filter id="filter0_d_392_1755" x="0.387451" y="0.594971" width="133.76" height="146.876" filterUnits="userSpaceOnUse" color-interpolation-filters="sRGB">
<feFlood flood-opacity="0" result="BackgroundImageFix"/>
<feColorMatrix in="SourceAlpha" type="matrix" values="0 0 0 0 0 0 0 0 0 0 0 0 0 0 0 0 0 0 127 0" result="hardAlpha"/>
<feOffset/>
<feGaussianBlur stdDeviation="2"/>
<feComposite in2="hardAlpha" operator="out"/>
<feColorMatrix type="matrix" values="0 0 0 0 0 0 0 0 0 0 0 0 0 0 0 0 0 0 0.25 0"/>
<feBlend mode="normal" in2="BackgroundImageFix" result="effect1_dropShadow_392_1755"/>
<feBlend mode="normal" in="SourceGraphic" in2="effect1_dropShadow_392_1755" result="shape"/>
</filter>
<clipPath id="clip0_392_1755">
<rect width="49.0141" height="49.0141" fill="white" transform="translate(37.637 57.7705)"/>
</clipPath>
</defs>
</svg>
