<svg width="159" height="159" viewBox="0 0 159 159" fill="none" xmlns="http://www.w3.org/2000/svg">
<g filter="url(#filter0_d_381_1851)">
<path d="M141.324 59.1435C140.291 58.774 139.346 58.1916 138.552 57.4341C137.758 56.6766 137.132 55.7607 136.714 54.7458C136.296 53.731 136.096 52.6397 136.126 51.5425C136.157 50.4454 136.417 49.3669 136.891 48.3768C138.709 44.5518 139.298 40.2581 138.578 36.0849C137.858 31.9116 135.864 28.0635 132.87 25.0686C129.876 22.0738 126.028 20.079 121.855 19.3581C117.682 18.6371 113.388 19.2254 109.563 21.0422C108.572 21.5148 107.494 21.7745 106.397 21.8045C105.3 21.8345 104.209 21.6342 103.195 21.2164C102.18 20.7986 101.265 20.1727 100.507 19.3791C99.7492 18.5854 99.1664 17.6417 98.796 16.6088C97.3722 12.6257 94.7519 9.18004 91.2939 6.74384C87.8359 4.30764 83.7094 3 79.4794 3C75.2494 3 71.1228 4.30764 67.6648 6.74384C64.2068 9.18004 61.5865 12.6257 60.1627 16.6088C59.7932 17.6423 59.2108 18.5867 58.4533 19.3809C57.6958 20.1751 56.7799 20.8014 55.765 21.2193C54.7502 21.6372 53.6589 21.8373 52.5617 21.8068C51.4646 21.7763 50.3861 21.5158 49.396 21.0422C45.5686 19.211 41.2676 18.6117 37.0854 19.3268C32.9032 20.0419 29.0457 22.0362 26.0441 25.035C23.0426 28.0337 21.0447 31.8894 20.3257 36.071C19.6068 40.2525 20.2021 44.5541 22.0297 48.3832C22.5044 49.3731 22.7657 50.4517 22.7967 51.5491C22.8277 52.6465 22.6277 53.7382 22.2097 54.7534C21.7917 55.7685 21.165 56.6845 20.3703 57.4419C19.5755 58.1993 18.6305 58.7812 17.5964 59.1498C13.616 60.5765 10.1736 63.1979 7.7399 66.6555C5.30618 70.1132 4 74.2382 4 78.4665C4 82.6948 5.30618 86.8198 7.7399 90.2775C10.1736 93.7351 13.616 96.3565 17.5964 97.7832C18.6326 98.1494 19.5803 98.7294 20.378 99.4855C21.1756 100.242 21.8054 101.157 22.2264 102.172C22.6474 103.187 22.8503 104.28 22.8218 105.379C22.7934 106.477 22.5343 107.558 22.0614 108.55C20.2427 112.372 19.6515 116.664 20.369 120.836C21.0865 125.008 23.0774 128.856 26.0687 131.851C29.0599 134.847 32.9048 136.843 37.0757 137.566C41.2467 138.289 45.5392 137.704 49.3644 135.891C50.3544 135.417 51.4329 135.157 52.5301 135.126C53.6272 135.096 54.7185 135.296 55.7334 135.714C56.7483 136.132 57.6641 136.758 58.4216 137.552C59.1792 138.346 59.7615 139.291 60.131 140.324C61.5548 144.307 64.1752 147.753 67.6332 150.189C71.0911 152.625 75.2177 153.933 79.4477 153.933C83.6777 153.933 87.8042 152.625 91.2622 150.189C94.7202 147.753 97.3406 144.307 98.7644 140.324C99.1339 139.291 99.7162 138.346 100.474 137.552C101.231 136.758 102.147 136.132 103.162 135.714C104.177 135.296 105.268 135.096 106.365 135.126C107.462 135.157 108.541 135.417 109.531 135.891C113.356 137.708 117.65 138.298 121.823 137.578C125.996 136.858 129.844 134.864 132.839 131.87C135.834 128.876 137.829 125.028 138.55 120.855C139.271 116.682 138.682 112.388 136.866 108.562C136.393 107.572 136.133 106.494 136.103 105.397C136.073 104.3 136.274 103.209 136.691 102.195C137.109 101.18 137.735 100.264 138.529 99.5067C139.322 98.749 140.266 98.1662 141.299 97.7958C145.282 96.372 148.728 93.7517 151.164 90.2937C153.6 86.8357 154.908 82.7092 154.908 78.4792C154.908 74.2492 153.6 70.1226 151.164 66.6646C148.728 63.2066 145.282 60.5863 141.299 59.1625L141.324 59.1435Z" fill="#E6DFFF"/>
<path d="M133.94 55.8881C134.458 57.1469 135.208 58.2954 136.15 59.2747L135.037 60.1099L140.289 61.9874C143.69 63.203 146.632 65.4401 148.712 68.3924C150.791 71.3447 151.908 74.8678 151.908 78.4792C151.908 82.0905 150.791 85.6136 148.712 88.5659C146.632 91.5182 143.69 93.7553 140.289 94.9709L140.287 94.9719C138.859 95.4838 137.554 96.2894 136.457 97.3368C135.36 98.3841 134.495 99.6499 133.917 101.052C133.34 102.455 133.063 103.963 133.104 105.479C133.146 106.993 133.504 108.482 134.156 109.849C135.707 113.115 136.209 116.781 135.594 120.344C134.978 123.907 133.275 127.192 130.718 129.748C128.161 132.304 124.876 134.007 121.313 134.621C117.752 135.236 114.088 134.733 110.823 133.183C109.455 132.529 107.965 132.169 106.449 132.127C104.932 132.085 103.423 132.362 102.02 132.94C100.617 133.517 99.3503 134.383 98.3029 135.481C97.2555 136.58 96.4504 137.885 95.9395 139.314L95.9394 139.314C94.7238 142.715 92.4867 145.657 89.5344 147.737C86.5822 149.817 83.0591 150.933 79.4477 150.933C75.8363 150.933 72.3132 149.817 69.361 147.737C66.4087 145.657 64.1716 142.715 62.956 139.314L62.9559 139.314C62.445 137.885 61.6399 136.58 60.5925 135.481C59.5451 134.383 58.2788 133.517 56.8756 132.94C55.4724 132.362 53.9636 132.085 52.4466 132.127C50.9317 132.169 49.4425 132.529 48.075 133.182C44.8106 134.729 41.1476 135.227 37.5883 134.61C34.0275 133.993 30.7451 132.288 28.1915 129.731C25.6378 127.174 23.9381 123.889 23.3256 120.328C22.7132 116.767 23.2175 113.104 24.7694 109.841C25.4233 108.469 25.7815 106.975 25.8208 105.456C25.8602 103.937 25.5796 102.427 24.9975 101.023C24.4154 99.6193 23.5447 98.3537 22.4419 97.3083C21.3409 96.2646 20.0331 95.4636 18.6032 94.9572C15.2071 93.7386 12.2699 91.5013 10.1931 88.5507C8.11522 85.5986 7 82.0766 7 78.4665C7 74.8564 8.11522 71.3344 10.1931 68.3823C12.2705 65.431 15.2085 63.1933 18.6057 61.9749C20.035 61.4651 21.3413 60.6606 22.4399 59.6136C23.539 58.5662 24.4057 57.2995 24.9837 55.8956C25.5618 54.4917 25.8384 52.982 25.7955 51.4644C25.7526 49.9478 25.3917 48.4571 24.7361 47.0888C23.1766 43.8202 22.6687 40.1486 23.2824 36.5793C23.8962 33.0093 25.6019 29.7175 28.1645 27.1573C30.727 24.597 34.0205 22.8944 37.591 22.2839C41.1616 21.6734 44.8336 22.185 48.1013 23.7484L48.1014 23.7484C49.4703 24.4033 50.9614 24.7635 52.4783 24.8057C53.9952 24.8479 55.5041 24.5711 56.9073 23.9933C58.3105 23.4155 59.5767 22.5496 60.6241 21.4515C61.6715 20.3534 62.4767 19.0477 62.9876 17.6188L62.9876 17.6186C64.2032 14.218 66.4403 11.2762 69.3926 9.19633C72.3449 7.11641 75.868 6 79.4794 6C83.0907 6 86.6138 7.11641 89.5661 9.19632C92.5184 11.2762 94.7555 14.218 95.9711 17.6186L95.9721 17.6213C96.484 19.0491 97.2896 20.3536 98.337 21.4507C99.3843 22.5477 100.65 23.4129 102.053 23.9904C103.455 24.5679 104.963 24.8449 106.479 24.8034C107.994 24.7619 109.484 24.4034 110.852 23.751C114.117 22.2008 117.782 21.6989 121.344 22.3143C124.907 22.9298 128.192 24.6328 130.748 27.1897C133.305 29.7466 135.007 33.032 135.622 36.5949C136.236 40.1558 135.734 43.8195 134.184 47.0836C133.53 48.4521 133.17 49.9428 133.128 51.4591C133.085 52.9761 133.362 54.4849 133.94 55.8881Z" stroke="white" stroke-width="6"/>
</g>
<circle cx="79" cy="78" r="44" fill="white"/>
<g clip-path="url(#clip0_381_1851)">
<path d="M78.5 54C73.8521 54 69.3087 55.3783 65.4441 57.9605C61.5796 60.5427 58.5675 64.2129 56.7888 68.5069C55.0102 72.801 54.5448 77.5261 55.4516 82.0846C56.3583 86.6432 58.5965 90.8305 61.883 94.117C65.1695 97.4035 69.3568 99.6417 73.9154 100.548C78.4739 101.455 83.199 100.99 87.4931 99.2112C91.7871 97.4325 95.4573 94.4205 98.0395 90.5559C100.622 86.6913 102 82.1479 102 77.5C101.993 71.2695 99.5152 65.2961 95.1096 60.8904C90.7039 56.4848 84.7305 54.0067 78.5 54V54ZM70.6667 69.6667C71.7054 69.6667 72.7017 70.0793 73.4362 70.8138C74.1707 71.5484 74.5833 72.5446 74.5833 73.5833C74.5833 75.5417 72.8306 75.5417 70.6667 75.5417C68.5027 75.5417 66.75 75.5417 66.75 73.5833C66.75 72.5446 67.1627 71.5484 67.8972 70.8138C68.6317 70.0793 69.6279 69.6667 70.6667 69.6667ZM89.7526 88.5979C89.4071 88.9845 88.9224 89.2183 88.4048 89.248C87.8871 89.2777 87.3788 89.101 86.9913 88.7565C84.5972 86.7411 81.6226 85.5419 78.5 85.3333C75.3774 85.5416 72.4027 86.7408 70.0087 88.7565C69.6207 89.1019 69.1114 89.279 68.5928 89.2489C68.0743 89.2188 67.5889 88.9839 67.2435 88.5959C66.8981 88.2079 66.721 87.6987 66.7511 87.1801C66.7812 86.6615 67.0161 86.1761 67.4041 85.8308C70.5137 83.1742 74.4154 81.6221 78.5 81.4167C82.5847 81.6221 86.4864 83.1742 89.5959 85.8308C89.7881 86.0021 89.9446 86.2096 90.0564 86.4414C90.1683 86.6732 90.2334 86.9248 90.248 87.1818C90.2625 87.4388 90.2262 87.6962 90.1412 87.9392C90.0562 88.1821 89.9242 88.406 89.7526 88.5979ZM86.3333 75.5417C84.1694 75.5417 82.4167 75.5417 82.4167 73.5833C82.4167 72.5446 82.8293 71.5484 83.5638 70.8138C84.2984 70.0793 85.2946 69.6667 86.3333 69.6667C87.3721 69.6667 88.3683 70.0793 89.1028 70.8138C89.8374 71.5484 90.25 72.5446 90.25 73.5833C90.25 75.5417 88.4973 75.5417 86.3333 75.5417Z" fill="#374957"/>
</g>
<defs>
<filter id="filter0_d_381_1851" x="0" y="0" width="158.908" height="158.933" filterUnits="userSpaceOnUse" color-interpolation-filters="sRGB">
<feFlood flood-opacity="0" result="BackgroundImageFix"/>
<feColorMatrix in="SourceAlpha" type="matrix" values="0 0 0 0 0 0 0 0 0 0 0 0 0 0 0 0 0 0 127 0" result="hardAlpha"/>
<feOffset dy="1"/>
<feGaussianBlur stdDeviation="2"/>
<feComposite in2="hardAlpha" operator="out"/>
<feColorMatrix type="matrix" values="0 0 0 0 0 0 0 0 0 0 0 0 0 0 0 0 0 0 0.25 0"/>
<feBlend mode="normal" in2="BackgroundImageFix" result="effect1_dropShadow_381_1851"/>
<feBlend mode="normal" in="SourceGraphic" in2="effect1_dropShadow_381_1851" result="shape"/>
</filter>
<clipPath id="clip0_381_1851">
<rect width="47" height="47" fill="white" transform="translate(55 54)"/>
</clipPath>
</defs>
</svg>
